<svg width="116" height="76" viewBox="0 0 116 76" fill="none" xmlns="http://www.w3.org/2000/svg">
<g clip-path="url(#clip0_105_1031)">
<path d="M32.2976 27.8287C32.2976 28.0109 32.1485 28.16 31.9662 28.16H27.2599C27.0776 28.16 26.9285 28.0109 26.9285 27.8287V23.1243C26.9285 22.9421 27.0776 22.793 27.2599 22.793H31.9662C32.1485 22.793 32.2976 22.9421 32.2976 23.1243V27.8287Z" fill="#B9B9B9"/>
<path d="M39.0588 27.8287C39.0588 28.0109 38.9097 28.16 38.7274 28.16H34.0211C33.8388 28.16 33.6897 28.0109 33.6897 27.8287V23.1243C33.6897 22.9421 33.8388 22.793 34.0211 22.793H38.7274C38.9097 22.793 39.0588 22.9421 39.0588 23.1243V27.8287Z" fill="#B9B9B9"/>
<path d="M82.3101 27.8287C82.3101 28.0109 82.1609 28.16 81.9786 28.16H77.2723C77.0901 28.16 76.9409 28.0109 76.9409 27.8287V23.1243C76.9409 22.9421 77.0901 22.793 77.2723 22.793H81.9786C82.1609 22.793 82.3101 22.9421 82.3101 23.1243V27.8287Z" fill="#B9B9B9"/>
<path d="M89.0713 27.8287C89.0713 28.0109 88.9221 28.16 88.7399 28.16H84.0336C83.8513 28.16 83.7021 28.0109 83.7021 27.8287V23.1243C83.7021 22.9421 83.8513 22.793 84.0336 22.793H88.7399C88.9221 22.793 89.0713 22.9421 89.0713 23.1243V27.8287Z" fill="#B9B9B9"/>
<path d="M99.7764 23.3895L93.8935 17.5089V13.3511C93.8935 13.1192 93.6947 12.937 93.4627 12.937H91.6067C91.3747 12.937 91.1924 13.1192 91.1924 13.3511V14.8254L83.4038 7.03987C83.1884 6.82453 82.8238 6.82453 82.5918 7.03987L81.7798 7.85155C81.5644 8.0669 81.1998 8.43133 80.9678 8.66324L73.925 15.7033L60.005 1.78878C59.7895 1.55687 59.425 1.20901 59.193 0.977097L58.3975 0.165415C58.1821 -0.0499298 57.8175 -0.0499298 57.5855 0.165415L49.797 7.95094V6.47666C49.797 6.24475 49.6147 6.06254 49.3661 6.06254H47.5101C47.2781 6.06254 47.0792 6.26132 47.0792 6.47666V10.6345L42.0415 15.6702L34.9987 8.63011C34.7832 8.41476 34.4187 8.05033 34.1867 7.81842L33.3747 7.00674C33.1592 6.7914 32.7947 6.7914 32.5627 7.00674L24.7741 14.7923V13.318C24.7741 13.0861 24.5918 12.9039 24.3432 12.9039H22.4872C22.2552 12.9039 22.0564 13.0861 22.0564 13.318V17.4758L16.1735 23.3563C15.9581 23.5717 15.9581 23.9361 16.1735 24.168L16.9855 24.9797C17.201 25.1951 17.5655 25.1951 17.7975 24.9797L32.5461 10.2203C32.7615 10.005 33.1261 10.005 33.3581 10.2203L48.1232 24.9797C48.3387 25.1951 48.7032 25.1951 48.9352 24.9797L49.7472 24.168C49.9627 23.9527 49.9627 23.5883 49.7472 23.3563L43.649 17.2604L57.569 3.34589C57.7844 3.13054 58.149 3.13054 58.381 3.34589L72.301 17.2604L66.2027 23.3563C65.9872 23.5717 65.9872 23.9361 66.2027 24.168L67.0147 24.9797C67.2301 25.1951 67.5947 25.1951 67.8267 24.9797L82.5752 10.2203C82.7907 10.005 83.1553 10.005 83.3872 10.2203L98.1358 24.9797C98.3512 25.1951 98.7158 25.1951 98.9478 24.9797L99.7598 24.168C100.008 23.9858 100.008 23.6214 99.7764 23.3895Z" fill="#B9B9B9"/>
<path d="M33.7226 11.7941C33.6398 11.7113 33.4906 11.5622 33.4078 11.4794L33.0929 11.1647C33.01 11.0818 32.8609 11.0818 32.778 11.1647L26.514 17.4428C26.4312 17.5256 26.4312 17.6747 26.514 17.7575L26.8289 18.0722C26.9118 18.1551 27.0609 18.1551 27.1438 18.0722L32.7946 12.4236C32.8775 12.3408 33.0266 12.3408 33.1095 12.4236L38.7603 18.0722C38.8432 18.1551 38.9923 18.1551 39.0752 18.0722L39.39 17.7575C39.4729 17.6747 39.4729 17.5256 39.39 17.4428L33.7226 11.7941Z" fill="#B9B9B9"/>
<path d="M58.7787 4.86981C58.6959 4.78698 58.5467 4.6379 58.4639 4.55508L58.149 4.24034C58.0662 4.15752 57.917 4.15752 57.8342 4.24034L51.5536 10.5185C51.4707 10.6013 51.4707 10.7504 51.5536 10.8332L51.8685 11.1479C51.9513 11.2308 52.1005 11.2308 52.1833 11.1479L57.8342 5.49928C57.917 5.41645 58.0662 5.41645 58.149 5.49928L63.7999 11.1479C63.8827 11.2308 64.0319 11.2308 64.1147 11.1479L64.4296 10.8332C64.5125 10.7504 64.5125 10.6178 64.4296 10.5185L58.7787 4.86981Z" fill="#B9B9B9"/>
<path d="M83.7848 11.7941C83.702 11.7113 83.5528 11.5622 83.47 11.4794L83.1551 11.1647C83.0723 11.0818 82.9231 11.0818 82.8403 11.1647L76.5597 17.4428C76.4768 17.5256 76.4768 17.6747 76.5597 17.7575L76.8746 18.0722C76.9574 18.1551 77.1066 18.1551 77.1894 18.0722L82.8568 12.407C82.9397 12.3242 83.0888 12.3242 83.1717 12.407L88.8226 18.0557C88.9054 18.1385 89.0546 18.1385 89.1374 18.0557L89.4523 17.7409C89.5351 17.6581 89.5351 17.509 89.4523 17.4262L83.7848 11.7941Z" fill="#B9B9B9"/>
<path d="M57.9999 34.0408C77.9519 34.0408 95.2193 38.2483 103.571 44.3774C101.069 36.5422 81.6308 30.4297 57.9999 30.4297C34.369 30.4297 14.9308 36.5256 12.4285 44.3774C20.7805 38.2483 38.0479 34.0408 57.9999 34.0408Z" fill="#E3E3E3"/>
<path d="M32.2976 32.0527V29.5183C32.2976 29.3361 32.1485 29.187 31.9662 29.187H27.2599C27.0776 29.187 26.9285 29.3361 26.9285 29.5183V33.5105C28.6022 32.9804 30.4085 32.5 32.2976 32.0527Z" fill="#B9B9B9"/>
<path d="M39.0588 30.7607V29.5183C39.0588 29.3361 38.9097 29.187 38.7274 29.187H34.0211C33.8388 29.187 33.6897 29.3361 33.6897 29.5183V31.7546C35.4131 31.3736 37.2028 31.0423 39.0588 30.7607Z" fill="#B9B9B9"/>
<path d="M82.3101 31.738V29.5017C82.3101 29.3195 82.1609 29.1704 81.9786 29.1704H77.2723C77.0901 29.1704 76.9409 29.3195 76.9409 29.5017V30.7441C78.7969 31.0422 80.5866 31.3735 82.3101 31.738Z" fill="#B9B9B9"/>
<path d="M89.0713 33.5105V29.5183C89.0713 29.3361 88.9221 29.187 88.7399 29.187H84.0336C83.8513 29.187 83.7021 29.3361 83.7021 29.5183V32.0527C85.5913 32.5 87.3976 32.9804 89.0713 33.5105Z" fill="#B9B9B9"/>
<path d="M57.304 21.7496C57.304 21.9318 57.1548 22.0809 56.9725 22.0809H52.2662C52.084 22.0809 51.9348 21.9318 51.9348 21.7496V17.0452C51.9348 16.863 52.084 16.7139 52.2662 16.7139H56.9725C57.1548 16.7139 57.304 16.863 57.304 17.0452V21.7496Z" fill="#B9B9B9"/>
<path d="M64.0652 21.7496C64.0652 21.9318 63.916 22.0809 63.7338 22.0809H59.0275C58.8452 22.0809 58.696 21.9318 58.696 21.7496V17.0452C58.696 16.863 58.8452 16.7139 59.0275 16.7139H63.7338C63.916 16.7139 64.0652 16.863 64.0652 17.0452V21.7496Z" fill="#B9B9B9"/>
<path d="M57.304 28.1437C57.304 28.3259 57.1548 28.475 56.9725 28.475H52.2662C52.084 28.475 51.9348 28.3259 51.9348 28.1437V23.4392C51.9348 23.257 52.084 23.1079 52.2662 23.1079H56.9725C57.1548 23.1079 57.304 23.257 57.304 23.4392V28.1437Z" fill="#B9B9B9"/>
<path d="M64.0652 28.1437C64.0652 28.3259 63.916 28.475 63.7338 28.475H59.0275C58.8452 28.475 58.696 28.3259 58.696 28.1437V23.4392C58.696 23.257 58.8452 23.1079 59.0275 23.1079H63.7338C63.916 23.1079 64.0652 23.257 64.0652 23.4392V28.1437Z" fill="#B9B9B9"/>
<path d="M0 50.7881H7.656C9.42914 50.7881 10.7549 51.1691 11.6331 51.9311C12.5114 52.6931 12.9589 53.7532 12.9589 55.1281C12.9589 55.8901 12.8429 56.5196 12.6274 57.0331C12.3954 57.53 12.1469 57.9441 11.8486 58.2423C11.5503 58.557 11.252 58.7724 10.9537 58.9049C10.6554 59.0374 10.44 59.1368 10.3074 59.17V59.2196C10.5394 59.2528 10.8046 59.319 11.0863 59.4516C11.368 59.5675 11.6166 59.7663 11.8651 60.0313C12.0971 60.2964 12.296 60.6277 12.4617 61.0584C12.6109 61.4725 12.6937 62.0026 12.6937 62.632C12.6937 63.5762 12.76 64.4376 12.9091 65.1996C13.0583 65.9781 13.2737 66.5248 13.572 66.8561H10.556C10.3406 66.5082 10.2246 66.1272 10.1914 65.7131C10.1583 65.299 10.1417 64.8849 10.1417 64.5039C10.1417 63.775 10.092 63.129 10.0091 62.5989C9.92629 62.0688 9.76057 61.6216 9.512 61.2737C9.28 60.9258 8.94857 60.6608 8.53429 60.4951C8.12 60.3295 7.58972 60.2467 6.94343 60.2467H2.81714V66.8561H0V50.7881ZM2.81714 58.0932H7.424C8.31886 58.0932 8.99829 57.8779 9.46229 57.4472C9.92629 57.0165 10.1583 56.387 10.1583 55.5257C10.1583 55.0121 10.0754 54.598 9.92629 54.2833C9.77714 53.9686 9.57829 53.7035 9.31314 53.5379C9.048 53.3557 8.74971 53.2397 8.41829 53.1734C8.08686 53.1072 7.73886 53.0906 7.37429 53.0906H2.81714V58.0932Z" fill="#B9B9B9"/>
<path d="M17.4663 61.6876C17.4663 62.1349 17.5326 62.5656 17.6652 62.9963C17.7978 63.4104 17.9801 63.7748 18.2452 64.0895C18.4938 64.4043 18.8252 64.6528 19.2063 64.835C19.5875 65.0172 20.0681 65.1166 20.5983 65.1166C21.3441 65.1166 21.9572 64.9509 22.4046 64.6362C22.8686 64.3215 23.2001 63.8245 23.4321 63.195H25.8515C25.7189 63.8245 25.4869 64.3877 25.1555 64.8847C24.8241 65.3816 24.4263 65.7957 23.9623 66.127C23.4983 66.4583 22.9846 66.7234 22.4046 66.889C21.8246 67.0547 21.2281 67.1541 20.5983 67.1541C19.6869 67.1541 18.8749 67.005 18.1789 66.7068C17.4663 66.4086 16.8863 65.9945 16.3892 65.4479C15.9086 64.9012 15.5275 64.2718 15.2955 63.5098C15.0469 62.7643 14.9309 61.9361 14.9309 61.0416C14.9309 60.2133 15.0635 59.4348 15.3286 58.6894C15.5938 57.9439 15.9583 57.2979 16.4555 56.7347C16.9361 56.1715 17.5326 55.7242 18.2121 55.3929C18.9081 55.0616 19.6869 54.896 20.5486 54.896C21.4601 54.896 22.2886 55.0948 23.0178 55.4758C23.7469 55.8568 24.3435 56.3703 24.8241 56.9997C25.3046 57.6292 25.6526 58.3581 25.8681 59.1698C26.0835 59.9814 26.1332 60.8263 26.0338 61.7042H17.4663V61.6876ZM23.4486 59.998C23.4155 59.6004 23.3326 59.2029 23.1835 58.8219C23.0343 58.4409 22.8521 58.1262 22.6035 57.8446C22.3549 57.563 22.0566 57.3476 21.7086 57.1654C21.3606 56.9997 20.9629 56.9004 20.5321 56.9004C20.0846 56.9004 19.6703 56.9832 19.3058 57.1323C18.9412 57.2813 18.6263 57.5133 18.3612 57.7783C18.0961 58.0599 17.8972 58.3746 17.7315 58.7556C17.5823 59.1366 17.4829 59.5342 17.4663 59.9649H23.4486V59.998Z" fill="#B9B9B9"/>
<path d="M37.6835 64.2556C37.6835 64.5703 37.7166 64.8022 37.7995 64.9347C37.8824 65.0673 38.0481 65.1335 38.2801 65.1335C38.3629 65.1335 38.4458 65.1335 38.5452 65.1335C38.6446 65.1335 38.7772 65.1169 38.9098 65.0838V66.8563C38.8269 66.8894 38.7109 66.9225 38.5618 66.9557C38.4126 66.9888 38.2801 67.0219 38.1309 67.055C37.9818 67.0882 37.8326 67.1047 37.6835 67.1213C37.5344 67.1379 37.4018 67.1379 37.3024 67.1379C36.7721 67.1379 36.3412 67.0385 35.9932 66.8231C35.6452 66.6078 35.4298 66.2434 35.3138 65.7299C34.8001 66.2268 34.1869 66.5912 33.4412 66.8066C32.6955 67.0219 31.9829 67.1379 31.2869 67.1379C30.7566 67.1379 30.2595 67.0716 29.7789 66.9225C29.2984 66.7734 28.8841 66.5747 28.5029 66.2931C28.1384 66.0115 27.8401 65.6636 27.6246 65.2329C27.4092 64.8022 27.2932 64.3053 27.2932 63.7421C27.2932 63.0298 27.4258 62.4334 27.6909 61.9862C27.9561 61.5389 28.3041 61.1911 28.7184 60.926C29.1492 60.6775 29.6298 60.4953 30.1601 60.3794C30.6904 60.2634 31.2206 60.1806 31.7675 60.1143C32.2315 60.0315 32.6789 59.9653 33.0932 59.9156C33.5075 59.8824 33.8886 59.8162 34.2035 59.7168C34.5184 59.634 34.7835 59.4849 34.9658 59.3027C35.1481 59.1204 35.2475 58.8388 35.2475 58.4578C35.2475 58.1265 35.1646 57.8615 35.0155 57.6462C34.8664 57.4308 34.6675 57.2817 34.4355 57.1658C34.2035 57.0498 33.9384 56.9836 33.6566 56.9339C33.3749 56.9007 33.1098 56.8842 32.8446 56.8842C32.1321 56.8842 31.5355 57.0333 31.0715 57.3314C30.6075 57.6296 30.3424 58.0934 30.2926 58.7229H27.7241C27.7738 57.9775 27.9561 57.348 28.2709 56.851C28.5858 56.3541 28.9835 55.9565 29.4806 55.6584C29.9612 55.3602 30.5246 55.1448 31.1378 55.0289C31.7509 54.9129 32.3806 54.8467 33.0269 54.8467C33.5904 54.8467 34.1538 54.9129 34.7172 55.0289C35.2641 55.1448 35.7778 55.3436 36.2086 55.6087C36.6561 55.8737 37.0041 56.2216 37.2692 56.6523C37.5344 57.0829 37.6669 57.5965 37.6669 58.2094V64.2556H37.6835ZM35.1315 61.0088C34.7338 61.2573 34.2698 61.423 33.6898 61.4727C33.1264 61.5224 32.5464 61.6052 31.9829 61.7046C31.7178 61.7543 31.4526 61.8205 31.2041 61.9034C30.9555 61.9862 30.7235 62.1021 30.5246 62.2346C30.3258 62.3837 30.1766 62.5659 30.0606 62.7979C29.9446 63.0298 29.8949 63.3114 29.8949 63.6427C29.8949 63.9243 29.9778 64.1727 30.1435 64.355C30.3092 64.5537 30.5081 64.7028 30.7401 64.8188C30.9721 64.9347 31.2206 65.0176 31.5024 65.0507C31.7841 65.1004 32.0326 65.117 32.2481 65.117C32.5298 65.117 32.8446 65.0838 33.1761 65.001C33.5075 64.9182 33.8224 64.8022 34.1041 64.62C34.4024 64.4378 34.6344 64.2059 34.8332 63.9408C35.0321 63.6592 35.1315 63.3279 35.1315 62.9138V61.0088Z" fill="#B9B9B9"/>
<path d="M40.5171 50.7881H43.0857V66.823H40.5171V50.7881Z" fill="#B9B9B9"/>
<path d="M52.4817 50.7881H64.0319V53.2066H55.2822V57.4141H63.3691V59.7H55.2822V64.3879H64.1811V66.8064H52.4651V50.7881H52.4817Z" fill="#B9B9B9"/>
<path d="M68.2081 63.0956C68.2909 63.841 68.5726 64.3711 69.0698 64.6693C69.5669 64.9675 70.1635 65.1165 70.8429 65.1165C71.0749 65.1165 71.3566 65.1 71.6715 65.0668C71.9864 65.0337 72.2681 64.9509 72.5332 64.8515C72.7984 64.7521 73.0304 64.5865 73.1961 64.3877C73.3618 64.1889 73.4446 63.9239 73.4281 63.5926C73.4115 63.2613 73.2955 62.9962 73.0635 62.7809C72.8315 62.5655 72.5498 62.3999 72.2018 62.2674C71.8538 62.1348 71.4561 62.0355 70.9921 61.9361C70.5446 61.8532 70.0806 61.7539 69.6166 61.6379C69.1361 61.5385 68.6721 61.406 68.2412 61.2569C67.7938 61.1078 67.3961 60.909 67.0481 60.644C66.7001 60.3955 66.4184 60.0642 66.2029 59.6667C65.9875 59.2691 65.8881 58.7722 65.8881 58.1924C65.8881 57.5629 66.0372 57.0328 66.3521 56.6022C66.6669 56.1715 67.0481 55.8236 67.5286 55.5751C67.9926 55.3101 68.5229 55.1279 69.1029 55.0285C69.6829 54.9291 70.2298 54.8794 70.7601 54.8794C71.3566 54.8794 71.9366 54.9457 72.4835 55.0782C73.0304 55.2107 73.5275 55.4095 73.9749 55.6911C74.4224 55.9727 74.7869 56.3537 75.0686 56.8009C75.3669 57.2647 75.5492 57.8114 75.6155 58.4574H72.9475C72.8315 57.8445 72.5498 57.4304 72.1024 57.2151C71.6549 56.9997 71.1578 56.9003 70.5778 56.9003C70.3955 56.9003 70.1801 56.9169 69.9315 56.95C69.6829 56.9831 69.4509 57.0328 69.2355 57.1157C69.0201 57.1985 68.8378 57.3144 68.6886 57.4801C68.5395 57.6292 68.4566 57.8445 68.4566 58.093C68.4566 58.4077 68.5726 58.6562 68.7881 58.855C69.0035 59.0538 69.2852 59.2029 69.6498 59.3354C69.9978 59.4679 70.3955 59.5673 70.8595 59.6667C71.3069 59.7495 71.7709 59.8489 72.2515 59.9648C72.7155 60.0642 73.1795 60.1967 73.6269 60.3458C74.0744 60.4949 74.4721 60.6937 74.8366 60.9587C75.1846 61.2072 75.4664 61.5385 75.6983 61.9195C75.9138 62.3171 76.0298 62.7809 76.0298 63.3607C76.0298 64.0564 75.8806 64.6362 75.5658 65.1165C75.2509 65.5969 74.8366 65.9779 74.3395 66.2927C73.8424 66.5908 73.2789 66.8062 72.6658 66.9387C72.0526 67.0712 71.4395 67.1375 70.8429 67.1375C70.1138 67.1375 69.4344 67.0546 68.8046 66.889C68.1749 66.7233 67.6446 66.4749 67.1806 66.1436C66.7166 65.8123 66.3686 65.3816 66.1035 64.8846C65.8384 64.3877 65.7058 63.7913 65.6892 63.0956H68.2081Z" fill="#B9B9B9"/>
<path d="M76.7754 55.2111H78.7142V51.7324H81.2828V55.2111H83.6028V57.116H81.2828V63.3113C81.2828 63.5764 81.2994 63.8083 81.316 64.0071C81.3325 64.2058 81.3988 64.3715 81.4651 64.504C81.548 64.6365 81.664 64.7359 81.8297 64.8022C81.9954 64.8684 82.2274 64.9016 82.5091 64.9016C82.6914 64.9016 82.8737 64.9016 83.056 64.885C83.2383 64.885 83.4205 64.8519 83.6028 64.8022V66.7734C83.3211 66.8065 83.0394 66.8397 82.7743 66.8562C82.5091 66.8894 82.2274 66.9059 81.9457 66.9059C81.2663 66.9059 80.736 66.8397 80.3217 66.7071C79.9074 66.5746 79.5925 66.3924 79.3605 66.1439C79.1285 65.8955 78.9628 65.5807 78.8965 65.2163C78.8137 64.8353 78.764 64.4212 78.7474 63.9408V57.0829H76.8085V55.2111H76.7754Z" fill="#B9B9B9"/>
<path d="M95.1532 64.2556C95.1532 64.5703 95.1864 64.8022 95.2692 64.9347C95.3521 65.0673 95.5178 65.1335 95.7498 65.1335C95.8327 65.1335 95.9155 65.1335 96.0149 65.1335C96.1144 65.1335 96.2469 65.1169 96.3795 65.0838V66.8563C96.2966 66.8894 96.1807 66.9225 96.0315 66.9557C95.8824 66.9888 95.7498 67.0219 95.6007 67.055C95.4515 67.0882 95.3024 67.1047 95.1532 67.1213C95.0041 67.1379 94.8715 67.1379 94.7721 67.1379C94.2418 67.1379 93.8109 67.0385 93.4629 66.8231C93.1149 66.6078 92.8995 66.2434 92.7835 65.7299C92.2698 66.2268 91.6566 66.5912 90.9109 66.8066C90.1652 67.0385 89.4526 67.1379 88.7566 67.1379C88.2264 67.1379 87.7292 67.0716 87.2487 66.9225C86.7681 66.7734 86.3538 66.5747 85.9727 66.2931C85.6081 66.0115 85.3098 65.6636 85.0944 65.2329C84.8789 64.8022 84.7629 64.3053 84.7629 63.7421C84.7629 63.0298 84.8955 62.4334 85.1607 61.9862C85.4258 61.5389 85.7738 61.1911 86.1881 60.926C86.6189 60.6775 87.0995 60.4953 87.6298 60.3794C88.1601 60.2634 88.6904 60.1806 89.2372 60.1143C89.7012 60.0315 90.1487 59.9653 90.5629 59.9156C90.9772 59.8824 91.3584 59.8162 91.6732 59.7168C91.9881 59.634 92.2532 59.4849 92.4355 59.3027C92.6178 59.1204 92.7172 58.8388 92.7172 58.4578C92.7172 58.1265 92.6344 57.8615 92.4852 57.6462C92.3361 57.4308 92.1372 57.2817 91.9052 57.1658C91.6732 57.0498 91.4081 56.9836 91.1264 56.9339C90.8447 56.9007 90.5795 56.8842 90.3144 56.8842C89.6018 56.8842 89.0052 57.0333 88.5412 57.3314C88.0772 57.6296 87.8121 58.0934 87.7624 58.7229H85.1938C85.2435 57.9775 85.4258 57.348 85.7407 56.851C86.0555 56.3541 86.4532 55.9565 86.9504 55.6584C87.4309 55.3602 87.9944 55.1448 88.6075 55.0289C89.2207 54.9129 89.8504 54.8467 90.4966 54.8467C91.0601 54.8467 91.6235 54.9129 92.1869 55.0289C92.7338 55.1448 93.2475 55.3436 93.6784 55.6087C94.1258 55.8737 94.4738 56.2216 94.7389 56.6523C95.0041 57.0829 95.1366 57.5965 95.1366 58.2094V64.2556H95.1532ZM92.6012 61.0088C92.2035 61.2573 91.7395 61.423 91.1595 61.4727C90.5961 61.5224 90.0161 61.6052 89.4527 61.7046C89.1875 61.7543 88.9224 61.8205 88.6738 61.9034C88.4252 61.9862 88.1932 62.1021 87.9944 62.2346C87.7955 62.3837 87.6464 62.5659 87.5304 62.7979C87.4144 63.0298 87.3647 63.3114 87.3647 63.6427C87.3647 63.9243 87.4475 64.1727 87.6132 64.355C87.7789 64.5537 87.9778 64.7028 88.2098 64.8188C88.4418 64.9347 88.6904 65.0176 88.9721 65.0507C89.2538 65.1004 89.5024 65.117 89.7178 65.117C89.9995 65.117 90.3144 65.0838 90.6458 65.001C90.9772 64.9182 91.2921 64.8022 91.5738 64.62C91.8721 64.4378 92.1041 64.2059 92.3029 63.9408C92.5018 63.6592 92.6012 63.3279 92.6012 62.9138V61.0088Z" fill="#B9B9B9"/>
<path d="M96.7605 55.2111H98.6993V51.7324H101.251V55.2111H103.571V57.116H101.251V63.3113C101.251 63.5764 101.268 63.8083 101.284 64.0071C101.301 64.2058 101.367 64.3715 101.434 64.504C101.516 64.6365 101.632 64.7359 101.798 64.8022C101.964 64.8684 102.196 64.9016 102.478 64.9016C102.66 64.9016 102.842 64.9016 103.024 64.885C103.207 64.885 103.389 64.8519 103.571 64.8022V66.7734C103.29 66.8065 103.008 66.8397 102.743 66.8562C102.478 66.8894 102.196 66.9059 101.914 66.9059C101.235 66.9059 100.704 66.8397 100.29 66.7071C99.8759 66.5746 99.5611 66.3924 99.3291 66.1439C99.0971 65.8955 98.9313 65.5807 98.8651 65.2163C98.7822 64.8353 98.7325 64.4212 98.7159 63.9408V57.0829H96.7771V55.2111H96.7605Z" fill="#B9B9B9"/>
<path d="M107.416 61.6876C107.416 62.1349 107.482 62.5656 107.615 62.9963C107.747 63.4104 107.93 63.7748 108.195 64.0895C108.443 64.4043 108.775 64.6528 109.156 64.835C109.554 65.0172 110.018 65.1166 110.548 65.1166C111.294 65.1166 111.907 64.9509 112.354 64.6362C112.818 64.3215 113.15 63.8245 113.382 63.195H115.801C115.669 63.8245 115.437 64.3877 115.105 64.8847C114.774 65.3816 114.376 65.7957 113.912 66.127C113.448 66.4583 112.934 66.7234 112.354 66.889C111.774 67.0547 111.178 67.1541 110.548 67.1541C109.637 67.1541 108.825 67.005 108.129 66.7068C107.416 66.4086 106.836 65.9945 106.339 65.4479C105.858 64.9012 105.477 64.2718 105.245 63.5098C104.997 62.7643 104.881 61.9361 104.881 61.0416C104.881 60.2133 105.013 59.4348 105.278 58.6894C105.543 57.9439 105.908 57.2979 106.405 56.7347C106.886 56.1715 107.482 55.7242 108.162 55.3929C108.858 55.0616 109.637 54.896 110.498 54.896C111.41 54.896 112.238 55.0948 112.967 55.4758C113.697 55.8568 114.293 56.3703 114.774 56.9997C115.254 57.6292 115.602 58.3581 115.818 59.1698C116.033 59.9814 116.083 60.8263 115.983 61.7042H107.416V61.6876ZM113.382 59.998C113.349 59.6004 113.266 59.2029 113.117 58.8219C112.967 58.4409 112.785 58.1262 112.537 57.8446C112.288 57.563 111.99 57.3476 111.642 57.1654C111.294 56.9997 110.896 56.9004 110.465 56.9004C110.018 56.9004 109.603 56.9832 109.239 57.1323C108.874 57.2813 108.559 57.5133 108.294 57.7783C108.029 58.0599 107.83 58.3746 107.665 58.7556C107.515 59.1366 107.416 59.5342 107.399 59.9649H113.382V59.998Z" fill="#B9B9B9"/>
<path d="M15.113 71.71H15.8588L16.6542 74.0125H16.6708L17.4496 71.71H18.1622L16.969 74.9567C16.9193 75.0892 16.853 75.2217 16.8033 75.3543C16.7536 75.4868 16.6873 75.5862 16.6045 75.6855C16.5216 75.7849 16.4388 75.8678 16.3228 75.9175C16.2068 75.9672 16.0576 76.0003 15.8753 76.0003C15.7096 76.0003 15.5605 75.9837 15.4113 75.9672V75.4039C15.461 75.4039 15.5273 75.4205 15.577 75.4371C15.6268 75.4536 15.6765 75.4536 15.7428 75.4536C15.8256 75.4536 15.8919 75.4371 15.9416 75.4205C15.9913 75.4039 16.041 75.3708 16.0742 75.3377C16.1073 75.3046 16.1405 75.2549 16.157 75.2052C16.1736 75.1555 16.2068 75.0892 16.2233 75.023L16.3062 74.791L15.113 71.71Z" fill="#B9B9B9"/>
<path d="M21.1285 74.8738C20.88 74.8738 20.6645 74.8406 20.4657 74.7578C20.2668 74.675 20.1177 74.559 19.9851 74.4265C19.8525 74.2774 19.7531 74.1118 19.6868 73.913C19.6205 73.7142 19.5874 73.4989 19.5874 73.267C19.5874 73.035 19.6205 72.8197 19.6868 72.6209C19.7531 72.4221 19.8525 72.2565 19.9851 72.1074C20.1177 71.9583 20.2834 71.8589 20.4657 71.7761C20.6645 71.6933 20.88 71.6602 21.1285 71.6602C21.3771 71.6602 21.5925 71.6933 21.7914 71.7761C21.9903 71.8589 22.1394 71.9749 22.272 72.1074C22.4045 72.2565 22.504 72.4221 22.5703 72.6209C22.6365 72.8197 22.6697 73.035 22.6697 73.267C22.6697 73.4989 22.6365 73.7308 22.5703 73.913C22.504 74.1118 22.4045 74.2774 22.272 74.4265C22.1394 74.5756 21.9737 74.675 21.7914 74.7578C21.5925 74.8241 21.3771 74.8738 21.1285 74.8738ZM21.1285 74.3271C21.2777 74.3271 21.4103 74.294 21.5263 74.2277C21.6423 74.1615 21.7251 74.0786 21.808 73.9792C21.8743 73.8799 21.924 73.7639 21.9737 73.6314C22.0068 73.4989 22.0234 73.3663 22.0234 73.2338C22.0234 73.1013 22.0068 72.9688 21.9737 72.8363C21.9405 72.7037 21.8908 72.5878 21.808 72.4884C21.7417 72.389 21.6423 72.3062 21.5263 72.2399C21.4103 72.1737 21.2777 72.1405 21.1285 72.1405C20.9794 72.1405 20.8468 72.1737 20.7308 72.2399C20.6148 72.3062 20.532 72.389 20.4491 72.4884C20.3828 72.5878 20.3331 72.7037 20.2834 72.8363C20.2503 72.9688 20.2337 73.1013 20.2337 73.2338C20.2337 73.3663 20.2503 73.4989 20.2834 73.6314C20.3165 73.7639 20.3663 73.8799 20.4491 73.9792C20.5154 74.0786 20.6148 74.1615 20.7308 74.2277C20.8468 74.294 20.9794 74.3271 21.1285 74.3271Z" fill="#B9B9B9"/>
<path d="M27.1438 74.7744H26.4809V74.3437H26.4644C26.3815 74.4928 26.2489 74.6253 26.0998 74.7081C25.9341 74.8075 25.7684 74.8406 25.6027 74.8406C25.2049 74.8406 24.9067 74.7412 24.7244 74.5425C24.5421 74.3437 24.4592 74.0455 24.4592 73.6314V71.6767H25.1387V73.5651C25.1387 73.8302 25.1884 74.0289 25.2878 74.1283C25.3872 74.2443 25.5364 74.294 25.7187 74.294C25.8678 74.294 25.9838 74.2774 26.0832 74.2277C26.1827 74.178 26.2489 74.1283 26.3152 74.0455C26.3815 73.9792 26.4147 73.8799 26.4478 73.7805C26.4809 73.6811 26.4809 73.5651 26.4809 73.4492V71.6602H27.1604V74.7744H27.1438Z" fill="#B9B9B9"/>
<path d="M29.0495 71.7097H29.6792V72.3061H29.6958C29.7124 72.2233 29.7621 72.1404 29.8118 72.0576C29.8615 71.9748 29.9444 71.9085 30.0272 71.8423C30.1101 71.776 30.193 71.7263 30.2924 71.6766C30.3918 71.6435 30.4912 71.6104 30.5907 71.6104C30.6735 71.6104 30.7232 71.6104 30.7564 71.6104C30.7895 71.6104 30.8227 71.6104 30.8558 71.6269V72.2729C30.8061 72.2729 30.7564 72.2564 30.7067 72.2564C30.657 72.2564 30.6072 72.2398 30.5575 72.2398C30.4415 72.2398 30.3421 72.2564 30.2261 72.3061C30.1267 72.3558 30.0438 72.422 29.961 72.5049C29.8781 72.5877 29.8284 72.7036 29.7787 72.8362C29.729 72.9687 29.7124 73.1178 29.7124 73.2834V74.7411H29.033V71.7097H29.0495Z" fill="#B9B9B9"/>
<path d="M34.8662 71.7099H35.3799V70.7822H36.0594V71.7099H36.6725V72.2234H36.0594V73.8633C36.0594 73.9296 36.0594 73.9958 36.0759 74.0455C36.0759 74.0952 36.0925 74.1449 36.1256 74.178C36.1422 74.2112 36.1754 74.2443 36.2251 74.2609C36.2748 74.2774 36.3245 74.294 36.4074 74.294C36.4571 74.294 36.5068 74.294 36.5565 74.294C36.6062 74.294 36.6559 74.2774 36.7056 74.2774V74.8075C36.6228 74.8075 36.5565 74.8241 36.4902 74.8241C36.4239 74.8241 36.3411 74.8406 36.2748 74.8406C36.0925 74.8406 35.9599 74.8241 35.8439 74.7909C35.7279 74.7578 35.6451 74.7081 35.5954 74.6419C35.5291 74.5756 35.4959 74.4928 35.4628 74.3934C35.4462 74.294 35.4296 74.178 35.4296 74.0621V72.2565H34.9159V71.7099H34.8662Z" fill="#B9B9B9"/>
<path d="M40.9147 74.095C40.9147 74.1778 40.9313 74.2441 40.9479 74.2772C40.9644 74.3104 41.0141 74.3269 41.0804 74.3269C41.097 74.3269 41.1301 74.3269 41.1467 74.3269C41.1799 74.3269 41.213 74.3269 41.2461 74.3104V74.7742C41.2296 74.7742 41.1964 74.7907 41.1467 74.8073C41.1136 74.8239 41.0639 74.8239 41.0307 74.8404C40.9976 74.8404 40.9478 74.857 40.9147 74.857C40.8816 74.857 40.8484 74.857 40.8153 74.857C40.6827 74.857 40.5667 74.8239 40.4673 74.7742C40.3678 74.7245 40.3181 74.6251 40.285 74.476C40.1524 74.6085 39.9867 74.7079 39.7879 74.7576C39.589 74.8239 39.4067 74.8404 39.2244 74.8404C39.0918 74.8404 38.9593 74.8239 38.8267 74.7907C38.6941 74.7576 38.5947 74.6914 38.4953 74.6251C38.3959 74.5588 38.313 74.4594 38.2633 74.3435C38.2136 74.2275 38.1804 74.095 38.1804 73.9459C38.1804 73.7637 38.2136 73.5981 38.2798 73.4821C38.3461 73.3662 38.4456 73.2668 38.5616 73.2005C38.6776 73.1343 38.7936 73.0846 38.9427 73.0514C39.0753 73.0183 39.2244 73.0017 39.3736 72.9852C39.4896 72.9686 39.6056 72.952 39.7216 72.9355C39.8376 72.9189 39.937 72.9023 40.0198 72.8858C40.1027 72.8692 40.169 72.8195 40.2187 72.7698C40.2684 72.7201 40.285 72.6539 40.285 72.5545C40.285 72.4717 40.2684 72.3888 40.2187 72.3391C40.169 72.2894 40.1193 72.2397 40.0696 72.2066C40.0033 72.1735 39.937 72.1569 39.8707 72.1404C39.7879 72.1238 39.7216 72.1238 39.6553 72.1238C39.473 72.1238 39.3073 72.1569 39.1913 72.2397C39.0753 72.3226 38.9924 72.4385 38.9758 72.6042H38.2964C38.313 72.4054 38.3627 72.2397 38.4456 72.1072C38.5284 71.9747 38.6278 71.8753 38.7604 71.7925C38.893 71.7097 39.0421 71.66 39.1913 71.6268C39.357 71.5937 39.5227 71.5771 39.6884 71.5771C39.8376 71.5771 39.9867 71.5937 40.1358 71.6268C40.285 71.66 40.4176 71.7097 40.5336 71.7759C40.6496 71.8422 40.749 71.9416 40.8153 72.0575C40.8816 72.1735 40.9147 72.306 40.9147 72.4717V74.095ZM40.2353 73.2502C40.1359 73.3165 40.0033 73.3662 39.8541 73.3662C39.705 73.3827 39.5559 73.3993 39.4067 73.4324C39.3404 73.449 39.2576 73.4656 39.1913 73.4821C39.125 73.4987 39.0587 73.5318 39.009 73.5649C38.9593 73.5981 38.9096 73.6478 38.893 73.714C38.8598 73.7803 38.8433 73.8465 38.8433 73.9294C38.8433 74.0122 38.8599 74.0619 38.9096 74.1116C38.9593 74.1613 39.009 74.211 39.0753 74.2275C39.1416 74.2607 39.2078 74.2772 39.2741 74.2938C39.3404 74.3104 39.4067 74.3104 39.473 74.3104C39.5558 74.3104 39.6221 74.2938 39.7216 74.2772C39.8044 74.2607 39.8873 74.2275 39.9701 74.1778C40.053 74.1281 40.1193 74.0619 40.169 73.9956C40.2187 73.9294 40.2518 73.83 40.2518 73.7306V73.2502H40.2353Z" fill="#B9B9B9"/>
<path d="M45.6873 74.6252C45.6873 75.089 45.5548 75.4369 45.2896 75.6688C45.0245 75.9007 44.6599 76.0167 44.1628 76.0167C44.0136 76.0167 43.8479 76.0001 43.6988 75.967C43.5496 75.9338 43.4005 75.8841 43.2679 75.8013C43.1353 75.7185 43.0359 75.6191 42.9365 75.5032C42.8536 75.3872 42.8039 75.2215 42.7873 75.0559H43.4668C43.4833 75.1553 43.5165 75.2215 43.5662 75.2878C43.6159 75.3541 43.6656 75.3872 43.7319 75.4203C43.7982 75.4535 43.8645 75.47 43.9473 75.4866C44.0302 75.5032 44.113 75.5032 44.1959 75.5032C44.4776 75.5032 44.6765 75.4369 44.7925 75.3044C44.925 75.1719 44.9748 74.9731 44.9748 74.7246V74.2608H44.9582C44.8588 74.4264 44.7262 74.559 44.5605 74.6583C44.3948 74.7577 44.2125 74.8074 44.0302 74.8074C43.7816 74.8074 43.5828 74.7577 43.4005 74.6749C43.2348 74.5921 43.0856 74.4761 42.9696 74.327C42.8536 74.178 42.7708 74.0123 42.721 73.8135C42.6713 73.6147 42.6382 73.416 42.6382 73.1841C42.6382 72.9853 42.6713 72.7865 42.7376 72.5877C42.8039 72.4055 42.8868 72.2399 43.0193 72.0908C43.1353 71.9583 43.2845 71.8423 43.4502 71.7595C43.6159 71.6767 43.8148 71.627 44.0302 71.627C44.229 71.627 44.3948 71.6601 44.5605 71.7429C44.7262 71.8257 44.8422 71.9583 44.9416 72.1239H44.9582V71.7098H45.6376V74.6252H45.6873ZM44.1793 74.2442C44.3285 74.2442 44.461 74.2111 44.5605 74.1448C44.6599 74.0786 44.7428 73.9957 44.809 73.8964C44.8753 73.797 44.925 73.681 44.9582 73.5485C44.9913 73.416 45.0079 73.2835 45.0079 73.1509C45.0079 73.0184 44.9913 72.8859 44.9582 72.7699C44.925 72.654 44.8753 72.538 44.809 72.4386C44.7428 72.3392 44.6599 72.273 44.5605 72.2067C44.461 72.157 44.3285 72.1239 44.1793 72.1239C44.0302 72.1239 43.8976 72.157 43.7982 72.2233C43.6988 72.2896 43.6159 72.3724 43.5496 72.4718C43.4833 72.5712 43.4336 72.6871 43.417 72.8196C43.3839 72.9522 43.3673 73.0681 43.3673 73.2006C43.3673 73.3331 43.3839 73.4491 43.417 73.5651C43.4502 73.681 43.4999 73.797 43.5662 73.8964C43.6325 73.9957 43.7153 74.062 43.8148 74.1283C43.9142 74.2111 44.0468 74.2442 44.1793 74.2442Z" fill="#B9B9B9"/>
<path d="M47.5764 70.5337H48.2558V74.7743H47.5764V70.5337Z" fill="#B9B9B9"/>
<path d="M50.1948 70.5337H50.8743V71.1797H50.1948V70.5337ZM50.1948 71.7098H50.8743V74.7909H50.1948V71.7098Z" fill="#B9B9B9"/>
<path d="M52.813 71.7098H53.4593V72.157L53.4758 72.1736C53.5753 72.008 53.7078 71.8754 53.8736 71.776C54.0393 71.6766 54.2216 71.627 54.4204 71.627C54.7518 71.627 55.017 71.7098 55.2158 71.892C55.4147 72.0742 55.5141 72.3227 55.5141 72.6705V74.7743H54.8347V72.8362C54.8347 72.5877 54.7684 72.4221 54.6856 72.3061C54.5861 72.1902 54.437 72.1405 54.2381 72.1405C54.1221 72.1405 54.0227 72.157 53.9233 72.2067C53.8238 72.2564 53.7576 72.3061 53.6913 72.3724C53.625 72.4386 53.5753 72.538 53.5421 72.6374C53.509 72.7368 53.4924 72.8362 53.4924 72.9521V74.7577H52.813V71.7098Z" fill="#B9B9B9"/>
<path d="M57.9501 73.416C57.9501 73.5319 57.9667 73.6479 57.9998 73.7638C58.033 73.8798 58.0827 73.9792 58.149 74.062C58.2153 74.1448 58.2981 74.2111 58.3975 74.2608C58.497 74.3105 58.6296 74.327 58.7621 74.327C58.961 74.327 59.1267 74.2773 59.2427 74.1945C59.3587 74.1117 59.4581 73.9792 59.5078 73.8135H60.1541C60.121 73.9792 60.0547 74.1283 59.9718 74.2608C59.889 74.3933 59.773 74.5093 59.657 74.5921C59.541 74.6749 59.3918 74.7412 59.2427 74.7909C59.0935 74.8406 58.9278 74.8571 58.7621 74.8571C58.5136 74.8571 58.2981 74.824 58.1158 74.7412C57.9336 74.6583 57.7678 74.559 57.6353 74.4099C57.5027 74.2608 57.4033 74.0951 57.337 73.8964C57.2707 73.6976 57.2375 73.4822 57.2375 73.2503C57.2375 73.035 57.2707 72.8196 57.337 72.6209C57.4033 72.4221 57.5027 72.2564 57.6353 72.1073C57.7678 71.9583 57.917 71.8423 58.0993 71.7595C58.2816 71.6767 58.4804 71.627 58.7124 71.627C58.961 71.627 59.1764 71.6766 59.3587 71.776C59.5576 71.8754 59.7067 72.008 59.8393 72.1736C59.9718 72.3392 60.0547 72.538 60.121 72.7534C60.1707 72.9687 60.1873 73.2006 60.1707 73.416H57.9501ZM59.5244 72.9687C59.5244 72.8693 59.4913 72.7534 59.4581 72.654C59.425 72.5546 59.3753 72.4718 59.309 72.3889C59.2427 72.3227 59.1598 72.2564 59.077 72.2067C58.9775 72.157 58.8781 72.1405 58.7621 72.1405C58.6461 72.1405 58.5301 72.157 58.4307 72.2067C58.3313 72.2564 58.2484 72.3061 58.1821 72.3724C58.1158 72.4386 58.0496 72.538 58.0164 72.6374C57.9667 72.7368 57.9501 72.8362 57.9501 72.9521H59.5244V72.9687Z" fill="#B9B9B9"/>
<path d="M67.5948 74.6252C67.5948 75.089 67.4622 75.4369 67.1971 75.6688C66.9319 75.9007 66.5674 76.0167 66.0702 76.0167C65.9211 76.0167 65.7554 76.0001 65.6062 75.967C65.4571 75.9338 65.3079 75.8841 65.1754 75.8013C65.0428 75.7185 64.9434 75.6191 64.8439 75.5032C64.7611 75.3872 64.7114 75.2215 64.6948 75.0559H65.3742C65.3908 75.1553 65.4239 75.2215 65.4737 75.2878C65.5234 75.3541 65.5731 75.3872 65.6394 75.4203C65.7057 75.4535 65.7719 75.47 65.8548 75.4866C65.9377 75.5032 66.0205 75.5032 66.1034 75.5032C66.3851 75.5032 66.5839 75.4369 66.6999 75.3044C66.8325 75.1719 66.8822 74.9731 66.8822 74.7246V74.2608H66.8657C66.7662 74.4264 66.6337 74.559 66.4679 74.6583C66.3022 74.7577 66.1199 74.8074 65.9377 74.8074C65.6891 74.8074 65.4902 74.7577 65.3079 74.6749C65.1422 74.5921 64.9931 74.4761 64.8771 74.327C64.7611 74.178 64.6782 74.0123 64.6285 73.8135C64.5788 73.6147 64.5457 73.416 64.5457 73.1841C64.5457 72.9853 64.5788 72.7865 64.6451 72.5877C64.7114 72.4055 64.7942 72.2399 64.9268 72.0908C65.0428 71.9583 65.1919 71.8423 65.3577 71.7595C65.5234 71.6767 65.7222 71.627 65.9377 71.627C66.1365 71.627 66.3022 71.6601 66.4679 71.7429C66.6337 71.8257 66.7497 71.9583 66.8491 72.1239H66.8657V71.7098H67.5451V74.6252H67.5948ZM66.0868 74.2442C66.2359 74.2442 66.3685 74.2111 66.4679 74.1448C66.5674 74.0786 66.6502 73.9957 66.7165 73.8964C66.7828 73.797 66.8325 73.681 66.8657 73.5485C66.8988 73.416 66.9154 73.2835 66.9154 73.1509C66.9154 73.0184 66.8988 72.8859 66.8657 72.7699C66.8325 72.654 66.7828 72.538 66.7165 72.4386C66.6502 72.3392 66.5674 72.273 66.4679 72.2067C66.3685 72.157 66.2359 72.1239 66.0868 72.1239C65.9377 72.1239 65.8051 72.157 65.7057 72.2233C65.6062 72.2896 65.5234 72.3724 65.4571 72.4718C65.3908 72.5712 65.3411 72.6871 65.3245 72.8196C65.2914 72.9522 65.2748 73.0681 65.2748 73.2006C65.2748 73.3331 65.2914 73.4491 65.3245 73.5651C65.3577 73.681 65.4074 73.797 65.4737 73.8964C65.5399 73.9957 65.6228 74.062 65.7222 74.1283C65.8217 74.2111 65.9542 74.2442 66.0868 74.2442Z" fill="#B9B9B9"/>
<path d="M70.8759 74.8738C70.6273 74.8738 70.4119 74.8406 70.213 74.7578C70.0141 74.675 69.865 74.559 69.7324 74.4265C69.5999 74.2774 69.5004 74.1118 69.4341 73.913C69.3679 73.7142 69.3347 73.4989 69.3347 73.267C69.3347 73.035 69.3679 72.8197 69.4341 72.6209C69.5004 72.4221 69.5999 72.2565 69.7324 72.1074C69.865 71.9583 70.0307 71.8589 70.213 71.7761C70.4119 71.6933 70.6273 71.6602 70.8759 71.6602C71.1244 71.6602 71.3399 71.6933 71.5387 71.7761C71.7376 71.8589 71.8867 71.9749 72.0193 72.1074C72.1519 72.2565 72.2513 72.4221 72.3176 72.6209C72.3839 72.8197 72.417 73.035 72.417 73.267C72.417 73.4989 72.3839 73.7308 72.3176 73.913C72.2513 74.1118 72.1519 74.2774 72.0193 74.4265C71.8867 74.5756 71.721 74.675 71.5387 74.7578C71.3399 74.8241 71.1244 74.8738 70.8759 74.8738ZM70.8759 74.3271C71.025 74.3271 71.1576 74.294 71.2736 74.2277C71.3896 74.1615 71.4724 74.0786 71.5553 73.9792C71.6216 73.8799 71.6713 73.7639 71.721 73.6314C71.7541 73.4989 71.7707 73.3663 71.7707 73.2338C71.7707 73.1013 71.7541 72.9688 71.721 72.8363C71.6879 72.7037 71.6381 72.5878 71.5553 72.4884C71.489 72.389 71.3896 72.3062 71.2736 72.2399C71.1576 72.1737 71.025 72.1405 70.8759 72.1405C70.7267 72.1405 70.5941 72.1737 70.4781 72.2399C70.3621 72.3062 70.2793 72.389 70.1964 72.4884C70.1301 72.5878 70.0804 72.7037 70.0307 72.8363C69.981 72.9688 69.981 73.1013 69.981 73.2338C69.981 73.3663 69.9976 73.4989 70.0307 73.6314C70.0639 73.7639 70.1136 73.8799 70.1964 73.9792C70.2627 74.0786 70.3621 74.1615 70.4781 74.2277C70.5941 74.294 70.7267 74.3271 70.8759 74.3271Z" fill="#B9B9B9"/>
<path d="M74.7204 73.416C74.7204 73.5319 74.737 73.6479 74.7701 73.7638C74.8032 73.8798 74.853 73.9792 74.9192 74.062C74.9855 74.1448 75.0684 74.2111 75.1678 74.2608C75.2672 74.3105 75.3998 74.327 75.5324 74.327C75.7312 74.327 75.897 74.2773 76.013 74.1945C76.129 74.1117 76.2284 73.9792 76.2781 73.8135H76.9244C76.8912 73.9792 76.825 74.1283 76.7421 74.2608C76.6592 74.3933 76.5432 74.5093 76.4272 74.5921C76.3112 74.6749 76.1621 74.7412 76.013 74.7909C75.8638 74.8406 75.6981 74.8571 75.5324 74.8571C75.2838 74.8571 75.0684 74.824 74.8861 74.7412C74.7038 74.6583 74.5381 74.559 74.4055 74.4099C74.273 74.2608 74.1735 74.0951 74.1072 73.8964C74.041 73.6976 74.0078 73.4822 74.0078 73.2503C74.0078 73.035 74.041 72.8196 74.1072 72.6209C74.1735 72.4221 74.273 72.2564 74.4055 72.1073C74.5381 71.9583 74.6872 71.8423 74.8695 71.7595C75.0518 71.6767 75.2507 71.627 75.4827 71.627C75.7312 71.627 75.9467 71.6766 76.129 71.776C76.3278 71.8754 76.477 72.008 76.6095 72.1736C76.7421 72.3392 76.825 72.538 76.8912 72.7534C76.941 72.9687 76.9575 73.2006 76.941 73.416H74.7204ZM76.2947 72.9687C76.2947 72.8693 76.2615 72.7534 76.2284 72.654C76.1952 72.5546 76.1455 72.4718 76.0792 72.3889C76.013 72.3227 75.9301 72.2564 75.8472 72.2067C75.7478 72.157 75.6484 72.1405 75.5324 72.1405C75.4164 72.1405 75.3004 72.157 75.201 72.2067C75.1015 72.2564 75.0187 72.3061 74.9524 72.3724C74.8861 72.4386 74.8198 72.538 74.7867 72.6374C74.737 72.7368 74.7204 72.8362 74.7204 72.9521H76.2947V72.9687Z" fill="#B9B9B9"/>
<path d="M79.1948 73.7969C79.2114 73.9957 79.2942 74.1282 79.4268 74.211C79.5594 74.2938 79.7085 74.327 79.8908 74.327C79.9571 74.327 80.0234 74.327 80.1062 74.3104C80.1891 74.2938 80.272 74.2773 80.3382 74.2607C80.4045 74.2276 80.4708 74.1944 80.5205 74.1448C80.5702 74.0951 80.5868 74.0288 80.5868 73.9294C80.5868 73.8466 80.5537 73.7638 80.4874 73.7141C80.4211 73.6644 80.3548 73.6147 80.2554 73.5815C80.156 73.5484 80.0565 73.5153 79.9405 73.4987C79.8245 73.4822 79.7085 73.449 79.576 73.4159C79.4434 73.3828 79.3274 73.3496 79.2114 73.3165C79.0954 73.2834 78.996 73.2171 78.8965 73.1509C78.7971 73.0846 78.7308 73.0018 78.6811 72.8858C78.6314 72.7864 78.5982 72.6539 78.5982 72.4883C78.5982 72.3226 78.6314 72.1901 78.7142 72.0741C78.7971 71.9582 78.8965 71.8754 79.0291 71.7925C79.1617 71.7263 79.2942 71.6766 79.4434 71.6434C79.5925 71.6103 79.7417 71.5938 79.8742 71.5938C80.04 71.5938 80.1891 71.6103 80.3217 71.6434C80.4708 71.6766 80.6034 71.7263 80.7194 71.8091C80.8354 71.8919 80.9348 71.9747 81.0177 72.1073C81.1005 72.2232 81.1502 72.3723 81.1668 72.5379H80.4542C80.4211 72.3723 80.3548 72.2729 80.2388 72.2067C80.1228 72.157 79.9902 72.1238 79.8411 72.1238C79.7914 72.1238 79.7417 72.1238 79.6754 72.1404C79.6091 72.1404 79.5428 72.157 79.4931 72.1901C79.4434 72.2066 79.3937 72.2398 79.344 72.2895C79.3108 72.3392 79.2777 72.3889 79.2777 72.4551C79.2777 72.5379 79.3108 72.6042 79.3605 72.6539C79.4102 72.7036 79.4931 72.7533 79.5925 72.7864C79.692 72.8196 79.7914 72.8527 79.9074 72.8692C80.0234 72.8858 80.156 72.9189 80.272 72.9521C80.388 72.9852 80.5205 73.0183 80.6365 73.0515C80.7525 73.0846 80.8685 73.1509 80.9514 73.2171C81.0508 73.2834 81.1171 73.3662 81.1834 73.4656C81.2331 73.565 81.2662 73.6975 81.2662 73.8466C81.2662 74.0288 81.2165 74.1779 81.1337 74.3104C81.0508 74.4429 80.9348 74.5423 80.8022 74.6251C80.6697 74.708 80.5205 74.7577 80.3548 74.7908C80.1891 74.8239 80.0234 74.8405 79.8742 74.8405C79.6754 74.8405 79.4931 74.8239 79.344 74.7742C79.1782 74.7245 79.0291 74.6583 78.9131 74.5754C78.7971 74.4926 78.6977 74.3767 78.6314 74.2441C78.5651 74.1116 78.532 73.946 78.5154 73.7638H79.1948V73.7969Z" fill="#B9B9B9"/>
<path d="M85.8066 70.5337H86.4861V72.1074H86.5026C86.5855 71.9748 86.7181 71.8589 86.8672 71.7595C87.0329 71.6601 87.2152 71.627 87.4141 71.627C87.7455 71.627 88.0106 71.7098 88.2095 71.892C88.4084 72.0742 88.5078 72.3227 88.5078 72.6706V74.7743H87.8284V72.8362C87.8284 72.5877 87.7621 72.4221 87.6792 72.3061C87.5798 72.1902 87.4306 72.1405 87.2318 72.1405C87.1158 72.1405 87.0164 72.1571 86.9169 72.2068C86.8175 72.2564 86.7512 72.3061 86.6849 72.3724C86.6186 72.4387 86.5689 72.5381 86.5358 72.6374C86.5026 72.7368 86.4861 72.8362 86.4861 72.9522V74.7578H85.8066V70.5337Z" fill="#B9B9B9"/>
<path d="M90.944 73.416C90.944 73.5319 90.9606 73.6479 90.9937 73.7638C91.0269 73.8798 91.0766 73.9792 91.1429 74.062C91.2092 74.1448 91.292 74.2111 91.3914 74.2608C91.4909 74.3105 91.6234 74.327 91.756 74.327C91.9549 74.327 92.1206 74.2773 92.2366 74.1945C92.3526 74.1117 92.452 73.9792 92.5017 73.8135H93.148C93.1149 73.9792 93.0486 74.1283 92.9657 74.2608C92.8829 74.3933 92.7669 74.5093 92.6509 74.5921C92.5349 74.6749 92.3857 74.7412 92.2366 74.7909C92.0874 74.8406 91.9217 74.8571 91.756 74.8571C91.5074 74.8571 91.292 74.824 91.1097 74.7412C90.9274 74.6583 90.7617 74.559 90.6292 74.4099C90.4966 74.2608 90.3972 74.0951 90.3309 73.8964C90.2646 73.6976 90.2314 73.4822 90.2314 73.2503C90.2314 73.035 90.2646 72.8196 90.3309 72.6209C90.3972 72.4221 90.4966 72.2564 90.6292 72.1073C90.7617 71.9583 90.9109 71.8423 91.0932 71.7595C91.2754 71.6767 91.4743 71.627 91.7063 71.627C91.9549 71.627 92.1703 71.6766 92.3526 71.776C92.5514 71.8754 92.7006 72.008 92.8332 72.1736C92.9657 72.3392 93.0486 72.538 93.1149 72.7534C93.1646 72.9687 93.1812 73.2006 93.1646 73.416H90.944ZM92.5183 72.9687C92.5183 72.8693 92.4852 72.7534 92.452 72.654C92.4189 72.5546 92.3692 72.4718 92.3029 72.3889C92.2366 72.3227 92.1537 72.2564 92.0709 72.2067C91.9714 72.157 91.872 72.1405 91.756 72.1405C91.64 72.1405 91.524 72.157 91.4246 72.2067C91.3252 72.2564 91.2423 72.3061 91.176 72.3724C91.1097 72.4386 91.0434 72.538 91.0103 72.6374C90.9606 72.7368 90.944 72.8362 90.944 72.9521H92.5183V72.9687Z" fill="#B9B9B9"/>
<path d="M94.9045 71.7097H95.5342V72.3061H95.5508C95.5674 72.2233 95.6171 72.1404 95.6668 72.0576C95.7165 71.9748 95.7994 71.9085 95.8822 71.8423C95.9651 71.776 96.0479 71.7263 96.1474 71.6766C96.2468 71.6435 96.3462 71.6104 96.4457 71.6104C96.5285 71.6104 96.5782 71.6104 96.6114 71.6104C96.6445 71.6104 96.6777 71.6104 96.7108 71.6269V72.2729C96.6611 72.2729 96.6114 72.2564 96.5617 72.2564C96.5119 72.2564 96.4622 72.2398 96.4125 72.2398C96.2965 72.2398 96.1971 72.2564 96.0811 72.3061C95.9817 72.3558 95.8988 72.422 95.8159 72.5049C95.7331 72.5877 95.6834 72.7036 95.6337 72.8362C95.5839 72.9687 95.5674 73.1178 95.5674 73.2834V74.7411H94.8879V71.7097H94.9045Z" fill="#B9B9B9"/>
<path d="M98.6164 73.416C98.6164 73.5319 98.633 73.6479 98.6661 73.7638C98.6992 73.8798 98.749 73.9792 98.8152 74.062C98.8815 74.1448 98.9644 74.2111 99.0638 74.2608C99.1632 74.3105 99.2958 74.327 99.4284 74.327C99.6272 74.327 99.793 74.2773 99.909 74.1945C100.025 74.1117 100.124 73.9792 100.174 73.8135H100.82C100.787 73.9792 100.721 74.1283 100.638 74.2608C100.555 74.3933 100.439 74.5093 100.323 74.5921C100.207 74.6749 100.058 74.7412 99.909 74.7909C99.7598 74.8406 99.5941 74.8571 99.4284 74.8571C99.1798 74.8571 98.9644 74.824 98.7821 74.7412C98.5998 74.6583 98.4341 74.559 98.3015 74.4099C98.169 74.2608 98.0695 74.0951 98.0032 73.8964C97.937 73.6976 97.9038 73.4822 97.9038 73.2503C97.9038 73.035 97.937 72.8196 98.0032 72.6209C98.0695 72.4221 98.169 72.2564 98.3015 72.1073C98.4341 71.9583 98.5832 71.8423 98.7655 71.7595C98.9478 71.6767 99.1467 71.627 99.3787 71.627C99.6272 71.627 99.8427 71.6766 100.025 71.776C100.224 71.8754 100.373 72.008 100.506 72.1736C100.638 72.3392 100.721 72.538 100.787 72.7534C100.837 72.9687 100.854 73.2006 100.837 73.416H98.6164ZM100.207 72.9687C100.207 72.8693 100.174 72.7534 100.141 72.654C100.108 72.5546 100.058 72.4718 99.9918 72.3889C99.9255 72.3227 99.8427 72.2564 99.7598 72.2067C99.6604 72.157 99.5609 72.1405 99.4449 72.1405C99.3289 72.1405 99.2129 72.157 99.1135 72.2067C99.0141 72.2564 98.9312 72.3061 98.8649 72.3724C98.7987 72.4386 98.7324 72.538 98.6992 72.6374C98.6495 72.7368 98.633 72.8362 98.633 72.9521H100.207V72.9687Z" fill="#B9B9B9"/>
</g>
<defs>
<clipPath id="clip0_105_1031">
<rect width="116" height="76" fill="white"/>
</clipPath>
</defs>
</svg>
