<svg width="72" height="67" viewBox="0 0 72 67" fill="none" xmlns="http://www.w3.org/2000/svg">
<path d="M21.9719 46.383L20.1897 43.3278L6.35647 19.353H2.87695L18.45 46.383H21.9719Z" fill="#B9B9B9"/>
<path d="M35.9319 46.383L34.1921 43.3278L32.4524 40.3151L30.6702 37.3023L28.9304 34.2895L27.1906 31.2343L20.3164 19.353H16.8369L25.4509 34.2895L27.1906 37.3023L28.9304 40.3151L30.6702 43.3278L32.4524 46.383H32.4099H32.4524H35.9319Z" fill="#B9B9B9"/>
<path d="M41.1512 43.3278L39.4114 40.3151L37.6716 37.3023L35.9319 34.2895L34.1921 31.2343L32.4524 28.2216L30.6701 25.2088L27.3179 19.353H23.8384L28.9304 28.2216L32.4524 34.2895L34.1921 37.3023L35.9319 40.3151L37.6716 43.3278L39.4114 46.383H42.8909H42.9333H42.8909L41.1512 43.3278Z" fill="#B9B9B9"/>
<path d="M48.7046 0.0458984H45.1826L32.4526 22.1536L34.1924 25.1664L48.7046 0.0458984Z" fill="#B9B9B9"/>
<path d="M25.4507 46.383H28.9302L27.1904 43.3278L25.4507 40.3151L23.7109 37.3023L13.3572 19.353H9.83521L21.9711 40.3151L23.7109 43.3278L25.4507 46.383Z" fill="#B9B9B9"/>
<path d="M37.6717 31.1919L55.6634 0.0458984H52.1838L35.9319 28.1791L35.9743 28.2216L37.6717 31.1919Z" fill="#B9B9B9"/>
<path d="M41.1939 37.2599L62.6651 0.0458984H59.1856L39.4541 34.2471V34.2895L41.1939 37.2599Z" fill="#B9B9B9"/>
<path d="M69.6663 0.0458984H66.1443L42.9333 40.2726V40.3151L44.6731 43.3278L69.6663 0.0458984Z" fill="#B9B9B9"/>
<path d="M5.08279 58.986C4.74332 59.283 4.27655 59.4952 3.76735 59.4952C2.70652 59.4952 1.81543 58.6465 1.81543 57.5432C1.81543 56.4824 2.70652 55.5913 3.76735 55.5913C4.27655 55.5913 4.74332 55.8035 5.08279 56.1005L6.01632 55.167C5.42226 54.6153 4.65845 54.2759 3.76735 54.2759C1.98516 54.2759 0.5 55.7186 0.5 57.5432C0.5 59.3679 1.94272 60.8106 3.76735 60.8106C4.61602 60.8106 5.42226 60.4711 6.01632 59.9195L5.08279 58.986Z" fill="#B9B9B9"/>
<path d="M14.5879 54.3184C12.8057 54.3184 11.3206 55.7611 11.3206 57.5857C11.3206 59.4103 12.7633 60.8531 14.5879 60.8531C16.3701 60.8531 17.8553 59.4103 17.8553 57.5857C17.8553 55.7611 16.4125 54.3184 14.5879 54.3184ZM14.5879 59.5377C13.5271 59.5377 12.636 58.6466 12.636 57.5857C12.636 56.5249 13.5271 55.6338 14.5879 55.6338C15.6487 55.6338 16.5398 56.5249 16.5398 57.5857C16.5398 58.6466 15.6912 59.5377 14.5879 59.5377Z" fill="#B9B9B9"/>
<path d="M26.8936 59.0709L24.9841 54.3184H23.6262V60.8106H24.8992V57.5857L26.2147 60.8106H27.615L28.9304 57.5857V60.8106H30.2034V54.3184H28.8031L26.8936 59.0709Z" fill="#B9B9B9"/>
<path d="M37.7995 54.3184H35.9749V60.8106H37.2903V58.2222H37.8419C38.9027 58.2222 39.7938 57.3311 39.7938 56.2703C39.7514 55.2095 38.8603 54.3184 37.7995 54.3184ZM37.7995 56.9068H37.2903V55.5914H37.7995C38.1389 55.5914 38.436 55.8884 38.436 56.2279C38.436 56.6098 38.1389 56.9068 37.7995 56.9068Z" fill="#B9B9B9"/>
<path d="M46.9644 54.3184L44.6306 60.8106H46.0309L46.7099 58.986H48.7042L49.3831 60.8106H50.7834L48.4496 54.3184H46.9644ZM47.1342 57.713L47.6434 56.2279L48.195 57.713H47.1342Z" fill="#B9B9B9"/>
<path d="M61.7313 54.3184H60.4158V58.6466L57.8274 54.3184H56.2998V60.8106H57.5728V56.4825L60.2037 60.8106H61.7313V54.3184Z" fill="#B9B9B9"/>
<path d="M70.3021 60.8106V57.713L71.9994 54.3184H70.5567L69.6231 56.1006L68.732 54.3184H67.2893L68.9866 57.713V60.8106H70.3021Z" fill="#B9B9B9"/>
<path d="M0.5 63.9932H1.26379V66.3695H1.68813V63.9932H2.45193V63.6113H0.5V63.9932Z" fill="#B9B9B9"/>
<path d="M5.50643 63.6113L4.48804 66.3695H4.91237L5.12454 65.733H6.18537L6.39753 66.3695H6.82187L5.80347 63.6113H5.50643ZM5.25183 65.3935L5.63374 64.2054L6.01564 65.3935H5.25183Z" fill="#B9B9B9"/>
<path d="M10.3019 65.2233H10.8535V65.3507C10.8535 65.5204 10.8111 65.6477 10.6838 65.775C10.5989 65.9023 10.4292 65.9447 10.3019 65.9447C10.217 65.9447 10.1321 65.9447 10.0473 65.9023C9.96239 65.8599 9.91996 65.8174 9.87752 65.775C9.83509 65.7325 9.79265 65.6477 9.75022 65.5628C9.75022 65.478 9.70778 65.2658 9.70778 65.0112C9.70778 64.7566 9.70778 64.5444 9.75022 64.4595C9.75022 64.3747 9.79266 64.2898 9.87752 64.2474C9.91996 64.205 9.96239 64.1625 10.0473 64.1201C10.1321 64.0777 10.217 64.0777 10.3019 64.0777C10.4292 64.0777 10.5565 64.1201 10.6413 64.205C10.7262 64.2898 10.811 64.3747 10.811 64.502H11.2354C11.1929 64.2898 11.0657 64.0777 10.9384 63.9079C10.7686 63.7382 10.5565 63.6533 10.3019 63.6533C10.0897 63.6533 9.91995 63.6958 9.75022 63.8231C9.62292 63.9079 9.49562 64.0352 9.41075 64.1625C9.36832 64.2474 9.32588 64.3323 9.32588 64.4171C9.32588 64.5444 9.28345 64.7566 9.28345 65.0536C9.28345 65.3507 9.28345 65.5628 9.32588 65.6901C9.32588 65.7326 9.36832 65.8174 9.36832 65.8174C9.36832 65.8599 9.41075 65.9023 9.41075 65.9447C9.49562 66.072 9.58048 66.1993 9.75022 66.2842C9.87752 66.369 10.0897 66.4539 10.3019 66.4539C10.5989 66.4539 10.811 66.369 10.9808 66.1569C11.1505 65.9871 11.2778 65.7326 11.2778 65.478V64.9263H10.3019V65.2233Z" fill="#B9B9B9"/>
<path d="M14.5029 63.6113H14.0786V66.3695H15.8608V65.9876H14.5029V63.6113Z" fill="#B9B9B9"/>
<path d="M19.0015 63.6113H18.5771V66.3695H19.0015V63.6113Z" fill="#B9B9B9"/>
<path d="M23.5406 65.5633L22.2677 63.6113H21.8857V66.3695H22.3101V64.4176L23.5406 66.3695H23.965V63.6113H23.5406V65.5633Z" fill="#B9B9B9"/>
<path d="M26.8518 66.3695H28.634V65.9876H27.2761V65.1814H28.4218V64.7995H27.2761V63.9932H28.634V63.6113H26.8518V66.3695Z" fill="#B9B9B9"/>
<path d="M35.4649 65.2233H36.0166V65.3507C36.0166 65.5204 35.9742 65.6477 35.8469 65.775C35.762 65.9023 35.5922 65.9447 35.4649 65.9447C35.3801 65.9447 35.2952 65.9447 35.2104 65.9023C35.1255 65.8599 35.083 65.8174 35.0406 65.775C34.9982 65.7325 34.9557 65.6477 34.9133 65.5628C34.9133 65.478 34.8709 65.2658 34.8709 65.0112C34.8709 64.7566 34.8709 64.5444 34.9133 64.4595C34.9133 64.3747 34.9557 64.2898 35.0406 64.2474C35.083 64.205 35.1255 64.1625 35.2104 64.1201C35.2952 64.0777 35.3801 64.0777 35.4649 64.0777C35.5922 64.0777 35.7195 64.1201 35.8044 64.205C35.8893 64.2898 35.9741 64.3747 35.9741 64.502H36.3985C36.356 64.2898 36.2287 64.0777 36.1014 63.9079C35.9317 63.7382 35.7195 63.6533 35.4649 63.6533C35.2528 63.6533 35.083 63.6958 34.9133 63.8231C34.786 63.9079 34.6587 64.0352 34.5739 64.1625C34.5314 64.2474 34.489 64.3323 34.489 64.4171C34.489 64.5444 34.4465 64.7566 34.4465 65.0536C34.4465 65.3507 34.4465 65.5628 34.489 65.6901C34.489 65.7326 34.5314 65.8174 34.5314 65.8174C34.5314 65.8599 34.5739 65.9023 34.5739 65.9447C34.6587 66.072 34.7436 66.1993 34.9133 66.2842C35.0406 66.369 35.2528 66.4539 35.4649 66.4539C35.762 66.4539 35.9741 66.369 36.1439 66.1569C36.3136 65.9871 36.4409 65.7326 36.4409 65.478V64.9263H35.4649V65.2233Z" fill="#B9B9B9"/>
<path d="M41.0245 64.0776C40.9397 63.9503 40.8548 63.823 40.7275 63.7381C40.6002 63.6532 40.388 63.5684 40.1759 63.5684C39.9637 63.5684 39.794 63.6108 39.6242 63.7381C39.4969 63.823 39.3696 63.9503 39.2848 64.0776C39.2423 64.1624 39.1999 64.2473 39.1999 64.3322C39.1999 64.4595 39.1575 64.6716 39.1575 64.9687C39.1575 65.2657 39.1575 65.4779 39.1999 65.6052C39.1999 65.6476 39.2423 65.7325 39.2423 65.7325C39.2423 65.7749 39.2848 65.8173 39.2848 65.8598C39.3696 65.9871 39.4545 66.1144 39.6242 66.1992C39.7515 66.2841 39.9637 66.369 40.1759 66.369C40.388 66.369 40.5578 66.3265 40.7275 66.1992C40.8548 66.1144 40.9821 65.9871 41.0245 65.8598C41.067 65.7749 41.1094 65.69 41.1094 65.6052C41.1094 65.4779 41.1518 65.2657 41.1518 64.9687C41.1518 64.6292 41.1518 64.417 41.1094 64.3322C41.1094 64.2473 41.067 64.1624 41.0245 64.0776ZM40.6851 65.5203C40.6851 65.6052 40.6426 65.69 40.5578 65.7325C40.5153 65.7749 40.4729 65.8173 40.388 65.8598C40.3032 65.9022 40.2183 65.9022 40.1334 65.9022C40.0486 65.9022 39.9637 65.9022 39.8788 65.8598C39.794 65.8173 39.7515 65.7749 39.7091 65.7325C39.6667 65.69 39.6242 65.6052 39.5818 65.5203C39.5818 65.4354 39.5394 65.2233 39.5394 64.9687C39.5394 64.7141 39.5394 64.5019 39.5818 64.417C39.5818 64.3322 39.6242 64.2473 39.7091 64.2049C39.7515 64.1624 39.794 64.12 39.8788 64.0776C39.9637 64.0351 40.0486 64.0351 40.1334 64.0351C40.2183 64.0351 40.3032 64.0776 40.388 64.0776C40.4729 64.12 40.5153 64.1624 40.5578 64.2049C40.6002 64.2473 40.6426 64.3322 40.6851 64.417C40.6851 64.5019 40.7275 64.7141 40.7275 64.9687C40.7275 65.2657 40.7275 65.4354 40.6851 65.5203Z" fill="#B9B9B9"/>
<path d="M43.9509 66.3695H45.7331V65.9876H44.3753V65.1814H45.521V64.7995H44.3753V63.9932H45.7331V63.6113H43.9509V66.3695Z" fill="#B9B9B9"/>
<path d="M49.4679 64.7995C49.3406 64.7995 49.2133 64.757 49.1708 64.757C49.0435 64.7146 48.9162 64.6722 48.8738 64.6297C48.8314 64.5449 48.789 64.5024 48.789 64.4176C48.789 64.2903 48.8314 64.2054 48.9163 64.1205C49.0011 64.0357 49.1284 64.0357 49.2557 64.0357C49.5103 64.0357 49.7225 64.1205 49.9346 64.2478L50.1468 63.9084C49.8922 63.7386 49.5952 63.6113 49.2557 63.6113C48.9587 63.6113 48.7465 63.6962 48.5768 63.8235C48.4071 63.9508 48.3222 64.163 48.3222 64.4176C48.3222 64.6297 48.407 64.7995 48.5343 64.9268C48.6616 65.0541 48.8314 65.1389 49.086 65.1814C49.2133 65.1814 49.3406 65.2238 49.4679 65.2238C49.7225 65.2662 49.8498 65.3935 49.8073 65.6057C49.8073 65.8603 49.6376 65.9876 49.2557 65.9876C48.9587 65.9876 48.7041 65.9027 48.4919 65.733L48.2373 66.03C48.5343 66.2846 48.8738 66.4119 49.2981 66.4119C49.9346 66.4119 50.2317 66.1573 50.2741 65.6057C50.2741 65.3935 50.2317 65.2238 50.1044 65.0965C49.9346 64.9268 49.7225 64.8419 49.4679 64.7995Z" fill="#B9B9B9"/>
<path d="M57.7418 64.7995H56.6385V63.6113H56.2566V66.3695H56.6385V65.1814H57.7418V66.3695H58.1661V63.6113H57.7418V64.7995Z" fill="#B9B9B9"/>
<path d="M61.095 66.3695H62.8347V65.9876H61.4769V65.1814H62.6226V64.7995H61.4769V63.9932H62.8347V63.6113H61.095V66.3695Z" fill="#B9B9B9"/>
<path d="M67.4591 64.3751C67.4591 64.1205 67.3742 63.9084 67.2045 63.7811C67.0772 63.6538 66.865 63.6113 66.6529 63.6113H65.592V66.3695H66.0164V65.1814H66.568L67.1196 66.3695H67.6288L66.9923 65.1389C67.2894 65.0116 67.4591 64.757 67.4591 64.3751ZM65.974 64.7995V63.9508H66.6104C66.7377 63.9508 66.865 63.9932 66.9075 64.0357C66.9923 64.1205 67.0348 64.2054 67.0348 64.3327C67.0348 64.46 66.9923 64.5449 66.9075 64.6297C66.8226 64.7146 66.6953 64.757 66.568 64.757H65.974V64.7995Z" fill="#B9B9B9"/>
<path d="M70.2183 66.3695H72.0004V65.9876H70.6426V65.1814H71.7883V64.7995H70.6426V63.9932H72.0004V63.6113H70.2183V66.3695Z" fill="#B9B9B9"/>
</svg>
