<svg width="69" height="24" viewBox="0 0 69 24" fill="none" xmlns="http://www.w3.org/2000/svg">
<path d="M0 3C0 1.34315 1.34315 0 3 0H61.3014C62.3552 0 63.3317 0.552897 63.8739 1.45651L68.0739 8.45651C68.6439 9.40656 68.6439 10.5934 68.0739 11.5435L63.8739 18.5435C63.3317 19.4471 62.3552 20 61.3014 20H0V3Z" fill="#FFA920"/>
<path d="M14 5.624V6.98H10.508V9.128H13.184V10.46H10.508V14H8.828V5.624H14ZM21.3713 10.532C21.3713 10.772 21.3553 10.988 21.3233 11.18H16.4633C16.5033 11.66 16.6713 12.036 16.9673 12.308C17.2633 12.58 17.6273 12.716 18.0593 12.716C18.6833 12.716 19.1273 12.448 19.3913 11.912H21.2033C21.0113 12.552 20.6433 13.08 20.0993 13.496C19.5553 13.904 18.8873 14.108 18.0953 14.108C17.4553 14.108 16.8793 13.968 16.3673 13.688C15.8633 13.4 15.4673 12.996 15.1793 12.476C14.8993 11.956 14.7593 11.356 14.7593 10.676C14.7593 9.988 14.8993 9.384 15.1793 8.864C15.4593 8.344 15.8513 7.944 16.3553 7.664C16.8593 7.384 17.4393 7.244 18.0953 7.244C18.7273 7.244 19.2913 7.38 19.7873 7.652C20.2913 7.924 20.6793 8.312 20.9513 8.816C21.2313 9.312 21.3713 9.884 21.3713 10.532ZM19.6313 10.052C19.6233 9.62 19.4673 9.276 19.1633 9.02C18.8593 8.756 18.4873 8.624 18.0473 8.624C17.6313 8.624 17.2793 8.752 16.9913 9.008C16.7113 9.256 16.5393 9.604 16.4753 10.052H19.6313ZM22.1655 10.652C22.1655 9.98 22.2975 9.384 22.5615 8.864C22.8335 8.344 23.1975 7.944 23.6535 7.664C24.1175 7.384 24.6335 7.244 25.2015 7.244C25.6975 7.244 26.1295 7.344 26.4975 7.544C26.8735 7.744 27.1735 7.996 27.3975 8.3V7.352H29.0895V14H27.3975V13.028C27.1815 13.34 26.8815 13.6 26.4975 13.808C26.1215 14.008 25.6855 14.108 25.1895 14.108C24.6295 14.108 24.1175 13.964 23.6535 13.676C23.1975 13.388 22.8335 12.984 22.5615 12.464C22.2975 11.936 22.1655 11.332 22.1655 10.652ZM27.3975 10.676C27.3975 10.268 27.3175 9.92 27.1575 9.632C26.9975 9.336 26.7815 9.112 26.5095 8.96C26.2375 8.8 25.9455 8.72 25.6335 8.72C25.3215 8.72 25.0335 8.796 24.7695 8.948C24.5055 9.1 24.2895 9.324 24.1215 9.62C23.9615 9.908 23.8815 10.252 23.8815 10.652C23.8815 11.052 23.9615 11.404 24.1215 11.708C24.2895 12.004 24.5055 12.232 24.7695 12.392C25.0415 12.552 25.3295 12.632 25.6335 12.632C25.9455 12.632 26.2375 12.556 26.5095 12.404C26.7815 12.244 26.9975 12.02 27.1575 11.732C27.3175 11.436 27.3975 11.084 27.3975 10.676ZM32.6863 8.732V11.948C32.6863 12.172 32.7383 12.336 32.8423 12.44C32.9543 12.536 33.1383 12.584 33.3943 12.584H34.1743V14H33.1183C31.7023 14 30.9943 13.312 30.9943 11.936V8.732H30.2023V7.352H30.9943V5.708H32.6863V7.352H34.1743V8.732H32.6863ZM41.6587 7.352V14H39.9667V13.16C39.7507 13.448 39.4667 13.676 39.1147 13.844C38.7707 14.004 38.3947 14.084 37.9867 14.084C37.4667 14.084 37.0067 13.976 36.6067 13.76C36.2067 13.536 35.8907 13.212 35.6587 12.788C35.4347 12.356 35.3227 11.844 35.3227 11.252V7.352H37.0027V11.012C37.0027 11.54 37.1347 11.948 37.3987 12.236C37.6627 12.516 38.0227 12.656 38.4787 12.656C38.9427 12.656 39.3067 12.516 39.5707 12.236C39.8347 11.948 39.9667 11.54 39.9667 11.012V7.352H41.6587ZM44.9963 8.384C45.2123 8.032 45.4923 7.756 45.8363 7.556C46.1883 7.356 46.5883 7.256 47.0363 7.256V9.02H46.5923C46.0643 9.02 45.6643 9.144 45.3923 9.392C45.1283 9.64 44.9963 10.072 44.9963 10.688V14H43.3163V7.352H44.9963V8.384ZM54.3478 10.532C54.3478 10.772 54.3318 10.988 54.2998 11.18H49.4398C49.4798 11.66 49.6478 12.036 49.9438 12.308C50.2398 12.58 50.6038 12.716 51.0358 12.716C51.6598 12.716 52.1038 12.448 52.3678 11.912H54.1798C53.9878 12.552 53.6198 13.08 53.0758 13.496C52.5318 13.904 51.8638 14.108 51.0718 14.108C50.4318 14.108 49.8558 13.968 49.3438 13.688C48.8398 13.4 48.4438 12.996 48.1558 12.476C47.8758 11.956 47.7358 11.356 47.7358 10.676C47.7358 9.988 47.8758 9.384 48.1558 8.864C48.4358 8.344 48.8278 7.944 49.3318 7.664C49.8358 7.384 50.4158 7.244 51.0718 7.244C51.7038 7.244 52.2678 7.38 52.7638 7.652C53.2678 7.924 53.6558 8.312 53.9278 8.816C54.2078 9.312 54.3478 9.884 54.3478 10.532ZM52.6078 10.052C52.5998 9.62 52.4438 9.276 52.1398 9.02C51.8358 8.756 51.4638 8.624 51.0238 8.624C50.6078 8.624 50.2558 8.752 49.9678 9.008C49.6878 9.256 49.5158 9.604 49.4518 10.052H52.6078ZM55.1421 10.652C55.1421 9.98 55.2741 9.384 55.5381 8.864C55.8101 8.344 56.1781 7.944 56.6421 7.664C57.1061 7.384 57.6221 7.244 58.1901 7.244C58.6221 7.244 59.0341 7.34 59.4261 7.532C59.8181 7.716 60.1301 7.964 60.3621 8.276V5.12H62.0661V14H60.3621V13.016C60.1541 13.344 59.8621 13.608 59.4861 13.808C59.1101 14.008 58.6741 14.108 58.1781 14.108C57.6181 14.108 57.1061 13.964 56.6421 13.676C56.1781 13.388 55.8101 12.984 55.5381 12.464C55.2741 11.936 55.1421 11.332 55.1421 10.652ZM60.3741 10.676C60.3741 10.268 60.2941 9.92 60.1341 9.632C59.9741 9.336 59.7581 9.112 59.4861 8.96C59.2141 8.8 58.9221 8.72 58.6101 8.72C58.2981 8.72 58.0101 8.796 57.7461 8.948C57.4821 9.1 57.2661 9.324 57.0981 9.62C56.9381 9.908 56.8581 10.252 56.8581 10.652C56.8581 11.052 56.9381 11.404 57.0981 11.708C57.2661 12.004 57.4821 12.232 57.7461 12.392C58.0181 12.552 58.3061 12.632 58.6101 12.632C58.9221 12.632 59.2141 12.556 59.4861 12.404C59.7581 12.244 59.9741 12.02 60.1341 11.732C60.2941 11.436 60.3741 11.084 60.3741 10.676Z" fill="white"/>
<path d="M4 24V20L0 20L4 24Z" fill="#C97B00"/>
</svg>
