<svg width="63" height="24" viewBox="0 0 63 24" fill="none" xmlns="http://www.w3.org/2000/svg">
<path d="M0 3C0 1.34315 1.34315 0 3 0H55.3014C56.3552 0 57.3317 0.552897 57.8739 1.45651L62.0739 8.45651C62.6439 9.40656 62.6439 10.5934 62.0739 11.5435L57.8739 18.5435C57.3317 19.4471 56.3552 20 55.3014 20H0V3Z" fill="#6E55FF"/>
<path d="M14 4.624V5.98H10.508V8.128H13.184V9.46H10.508V13H8.828V4.624H14ZM18.1433 13.108C17.5033 13.108 16.9273 12.968 16.4153 12.688C15.9033 12.4 15.4993 11.996 15.2033 11.476C14.9153 10.956 14.7713 10.356 14.7713 9.676C14.7713 8.996 14.9193 8.396 15.2153 7.876C15.5193 7.356 15.9313 6.956 16.4513 6.676C16.9713 6.388 17.5513 6.244 18.1913 6.244C18.8313 6.244 19.4113 6.388 19.9313 6.676C20.4513 6.956 20.8593 7.356 21.1553 7.876C21.4593 8.396 21.6113 8.996 21.6113 9.676C21.6113 10.356 21.4553 10.956 21.1433 11.476C20.8393 11.996 20.4233 12.4 19.8953 12.688C19.3753 12.968 18.7913 13.108 18.1433 13.108ZM18.1433 11.644C18.4473 11.644 18.7313 11.572 18.9953 11.428C19.2673 11.276 19.4833 11.052 19.6433 10.756C19.8033 10.46 19.8833 10.1 19.8833 9.676C19.8833 9.044 19.7153 8.56 19.3793 8.224C19.0513 7.88 18.6473 7.708 18.1673 7.708C17.6873 7.708 17.2833 7.88 16.9553 8.224C16.6353 8.56 16.4753 9.044 16.4753 9.676C16.4753 10.308 16.6313 10.796 16.9433 11.14C17.2633 11.476 17.6633 11.644 18.1433 11.644ZM24.5236 7.384C24.7396 7.032 25.0196 6.756 25.3636 6.556C25.7156 6.356 26.1156 6.256 26.5636 6.256V8.02H26.1196C25.5916 8.02 25.1916 8.144 24.9196 8.392C24.6556 8.64 24.5236 9.072 24.5236 9.688V13H22.8436V6.352H24.5236V7.384ZM33.0986 13.108C32.5546 13.108 32.0666 13.012 31.6346 12.82C31.2026 12.62 30.8586 12.352 30.6026 12.016C30.3546 11.68 30.2186 11.308 30.1946 10.9H31.8866C31.9186 11.156 32.0426 11.368 32.2586 11.536C32.4826 11.704 32.7586 11.788 33.0866 11.788C33.4066 11.788 33.6546 11.724 33.8306 11.596C34.0146 11.468 34.1066 11.304 34.1066 11.104C34.1066 10.888 33.9946 10.728 33.7706 10.624C33.5546 10.512 33.2066 10.392 32.7266 10.264C32.2306 10.144 31.8226 10.02 31.5026 9.892C31.1906 9.764 30.9186 9.568 30.6866 9.304C30.4626 9.04 30.3506 8.684 30.3506 8.236C30.3506 7.868 30.4546 7.532 30.6626 7.228C30.8786 6.924 31.1826 6.684 31.5746 6.508C31.9746 6.332 32.4426 6.244 32.9786 6.244C33.7706 6.244 34.4026 6.444 34.8746 6.844C35.3466 7.236 35.6066 7.768 35.6546 8.44H34.0466C34.0226 8.176 33.9106 7.968 33.7106 7.816C33.5186 7.656 33.2586 7.576 32.9306 7.576C32.6266 7.576 32.3906 7.632 32.2226 7.744C32.0626 7.856 31.9826 8.012 31.9826 8.212C31.9826 8.436 32.0946 8.608 32.3186 8.728C32.5426 8.84 32.8906 8.956 33.3626 9.076C33.8426 9.196 34.2386 9.32 34.5506 9.448C34.8626 9.576 35.1306 9.776 35.3546 10.048C35.5866 10.312 35.7066 10.664 35.7146 11.104C35.7146 11.488 35.6066 11.832 35.3906 12.136C35.1826 12.44 34.8786 12.68 34.4786 12.856C34.0866 13.024 33.6266 13.108 33.0986 13.108ZM36.6616 9.652C36.6616 8.98 36.7936 8.384 37.0576 7.864C37.3296 7.344 37.6936 6.944 38.1496 6.664C38.6136 6.384 39.1296 6.244 39.6976 6.244C40.1936 6.244 40.6256 6.344 40.9936 6.544C41.3696 6.744 41.6696 6.996 41.8936 7.3V6.352H43.5856V13H41.8936V12.028C41.6776 12.34 41.3776 12.6 40.9936 12.808C40.6176 13.008 40.1816 13.108 39.6856 13.108C39.1256 13.108 38.6136 12.964 38.1496 12.676C37.6936 12.388 37.3296 11.984 37.0576 11.464C36.7936 10.936 36.6616 10.332 36.6616 9.652ZM41.8936 9.676C41.8936 9.268 41.8136 8.92 41.6536 8.632C41.4936 8.336 41.2776 8.112 41.0056 7.96C40.7336 7.8 40.4416 7.72 40.1296 7.72C39.8176 7.72 39.5296 7.796 39.2656 7.948C39.0016 8.1 38.7856 8.324 38.6176 8.62C38.4576 8.908 38.3776 9.252 38.3776 9.652C38.3776 10.052 38.4576 10.404 38.6176 10.708C38.7856 11.004 39.0016 11.232 39.2656 11.392C39.5376 11.552 39.8256 11.632 40.1296 11.632C40.4416 11.632 40.7336 11.556 41.0056 11.404C41.2776 11.244 41.4936 11.02 41.6536 10.732C41.8136 10.436 41.8936 10.084 41.8936 9.676ZM46.9064 4.12V13H45.2264V4.12H46.9064ZM54.7463 9.532C54.7463 9.772 54.7303 9.988 54.6983 10.18H49.8383C49.8783 10.66 50.0463 11.036 50.3423 11.308C50.6383 11.58 51.0023 11.716 51.4343 11.716C52.0583 11.716 52.5023 11.448 52.7663 10.912H54.5783C54.3863 11.552 54.0183 12.08 53.4743 12.496C52.9303 12.904 52.2623 13.108 51.4703 13.108C50.8303 13.108 50.2543 12.968 49.7423 12.688C49.2383 12.4 48.8423 11.996 48.5543 11.476C48.2743 10.956 48.1343 10.356 48.1343 9.676C48.1343 8.988 48.2743 8.384 48.5543 7.864C48.8343 7.344 49.2263 6.944 49.7303 6.664C50.2343 6.384 50.8143 6.244 51.4703 6.244C52.1023 6.244 52.6663 6.38 53.1623 6.652C53.6663 6.924 54.0543 7.312 54.3263 7.816C54.6063 8.312 54.7463 8.884 54.7463 9.532ZM53.0063 9.052C52.9983 8.62 52.8423 8.276 52.5383 8.02C52.2343 7.756 51.8623 7.624 51.4223 7.624C51.0063 7.624 50.6543 7.752 50.3663 8.008C50.0863 8.256 49.9143 8.604 49.8503 9.052H53.0063Z" fill="white"/>
<path d="M4 24V20L0 20L4 24Z" fill="#3722AE"/>
</svg>
