<svg width="219" height="55" viewBox="0 0 219 55" fill="none" xmlns="http://www.w3.org/2000/svg">
<g clip-path="url(#clip0_1514_48738)">
<path d="M8.93004 26.4571C9.4597 26.4571 9.96773 26.247 10.3427 25.8729L21.5904 14.6503C22.3712 13.8712 23.6354 13.8713 24.416 14.6506L35.6573 25.8725C36.0322 26.2469 36.5404 26.4571 37.0703 26.4571H41.1657C42.9483 26.4571 43.8403 24.3011 42.5787 23.0417L24.4162 4.91036C23.6355 4.13102 22.3712 4.13092 21.5904 4.91015L3.42253 23.0415C2.16064 24.3008 3.05253 26.4571 4.83531 26.4571H8.93004Z" fill="white"/>
<path d="M12.7137 13.8471H7.74915C6.64458 13.8471 5.74915 14.7425 5.74915 15.8471V21.3108H12.7137V13.8471Z" fill="white"/>
<path d="M28.831 33.0379C29.5126 30.1661 27.7331 27.2863 24.8563 26.6059C21.9795 25.9254 19.0948 27.7019 18.4132 30.5738C17.7315 33.4456 19.5111 36.3253 22.3879 37.0058C25.2647 37.6863 28.1493 35.9098 28.831 33.0379Z" fill="white"/>
<path d="M24.6148 32.0192C24.6148 31.1157 25.3473 30.3833 26.2507 30.3833H42.2316C43.3362 30.3833 44.2316 31.2787 44.2316 32.3833L44.2316 49.5C44.2316 50.6046 43.3362 51.5 42.2316 51.5H3.49536C2.39079 51.5 1.49536 50.6046 1.49536 49.5V33.2149C1.49536 32.1103 2.39079 31.2149 3.49536 31.2149H6.39161C7.49618 31.2149 8.39161 32.1103 8.39161 33.2149V42.6156C8.39161 43.7202 9.28704 44.6156 10.3916 44.6156H35.3285C36.4331 44.6156 37.3285 43.7202 37.3285 42.6156V35.6551C37.3285 34.5505 36.4331 33.6551 35.3285 33.6551H26.2507C25.3473 33.6551 24.6148 32.9227 24.6148 32.0192Z" fill="white"/>
</g>
<path d="M79.14 7.96V22H75.72V13.58L72.58 22H69.82L66.66 13.56V22H63.24V7.96H67.28L71.22 17.68L75.12 7.96H79.14ZM80.9194 16.4C80.9194 15.2533 81.1327 14.2467 81.5594 13.38C81.9994 12.5133 82.5927 11.8467 83.3394 11.38C84.086 10.9133 84.9194 10.68 85.8394 10.68C86.626 10.68 87.3127 10.84 87.8994 11.16C88.4994 11.48 88.9594 11.9 89.2794 12.42V10.84H92.6994V22H89.2794V20.42C88.946 20.94 88.4794 21.36 87.8794 21.68C87.2927 22 86.606 22.16 85.8194 22.16C84.9127 22.16 84.086 21.9267 83.3394 21.46C82.5927 20.98 81.9994 20.3067 81.5594 19.44C81.1327 18.56 80.9194 17.5467 80.9194 16.4ZM89.2794 16.42C89.2794 15.5667 89.0394 14.8933 88.5594 14.4C88.0927 13.9067 87.5194 13.66 86.8394 13.66C86.1594 13.66 85.5794 13.9067 85.0994 14.4C84.6327 14.88 84.3994 15.5467 84.3994 16.4C84.3994 17.2533 84.6327 17.9333 85.0994 18.44C85.5794 18.9333 86.1594 19.18 86.8394 19.18C87.5194 19.18 88.0927 18.9333 88.5594 18.44C89.0394 17.9467 89.2794 17.2733 89.2794 16.42ZM101.994 22L98.5936 17.32V22H95.1736V7.2H98.5936V15.38L101.974 10.84H106.194L101.554 16.44L106.234 22H101.994ZM118.057 16.24C118.057 16.56 118.037 16.8933 117.997 17.24H110.257C110.31 17.9333 110.53 18.4667 110.917 18.84C111.317 19.2 111.804 19.38 112.377 19.38C113.23 19.38 113.824 19.02 114.157 18.3H117.797C117.61 19.0333 117.27 19.6933 116.777 20.28C116.297 20.8667 115.69 21.3267 114.957 21.66C114.224 21.9933 113.404 22.16 112.497 22.16C111.404 22.16 110.43 21.9267 109.577 21.46C108.724 20.9933 108.057 20.3267 107.577 19.46C107.097 18.5933 106.857 17.58 106.857 16.42C106.857 15.26 107.09 14.2467 107.557 13.38C108.037 12.5133 108.704 11.8467 109.557 11.38C110.41 10.9133 111.39 10.68 112.497 10.68C113.577 10.68 114.537 10.9067 115.377 11.36C116.217 11.8133 116.87 12.46 117.337 13.3C117.817 14.14 118.057 15.12 118.057 16.24ZM114.557 15.34C114.557 14.7533 114.357 14.2867 113.957 13.94C113.557 13.5933 113.057 13.42 112.457 13.42C111.884 13.42 111.397 13.5867 110.997 13.92C110.61 14.2533 110.37 14.7267 110.277 15.34H114.557ZM139.999 7.96V22H136.579V13.58L133.439 22H130.679L127.519 13.56V22H124.099V7.96H128.139L132.079 17.68L135.979 7.96H139.999ZM153.859 10.84L146.859 27.3H143.179L145.739 21.62L141.199 10.84H145.019L147.599 17.82L150.159 10.84H153.859ZM171.494 7.96V22H168.074V16.22H162.754V22H159.334V7.96H162.754V13.46H168.074V7.96H171.494ZM179.043 22.16C177.949 22.16 176.963 21.9267 176.083 21.46C175.216 20.9933 174.529 20.3267 174.023 19.46C173.529 18.5933 173.283 17.58 173.283 16.42C173.283 15.2733 173.536 14.2667 174.043 13.4C174.549 12.52 175.243 11.8467 176.123 11.38C177.003 10.9133 177.989 10.68 179.083 10.68C180.176 10.68 181.163 10.9133 182.043 11.38C182.923 11.8467 183.616 12.52 184.123 13.4C184.629 14.2667 184.883 15.2733 184.883 16.42C184.883 17.5667 184.623 18.58 184.103 19.46C183.596 20.3267 182.896 20.9933 182.003 21.46C181.123 21.9267 180.136 22.16 179.043 22.16ZM179.043 19.2C179.696 19.2 180.249 18.96 180.703 18.48C181.169 18 181.403 17.3133 181.403 16.42C181.403 15.5267 181.176 14.84 180.723 14.36C180.283 13.88 179.736 13.64 179.083 13.64C178.416 13.64 177.863 13.88 177.423 14.36C176.983 14.8267 176.763 15.5133 176.763 16.42C176.763 17.3133 176.976 18 177.403 18.48C177.843 18.96 178.389 19.2 179.043 19.2ZM200.937 10.72C202.324 10.72 203.424 11.14 204.237 11.98C205.064 12.82 205.477 13.9867 205.477 15.48V22H202.077V15.94C202.077 15.22 201.884 14.6667 201.497 14.28C201.124 13.88 200.604 13.68 199.937 13.68C199.27 13.68 198.744 13.88 198.357 14.28C197.984 14.6667 197.797 15.22 197.797 15.94V22H194.397V15.94C194.397 15.22 194.204 14.6667 193.817 14.28C193.444 13.88 192.924 13.68 192.257 13.68C191.59 13.68 191.064 13.88 190.677 14.28C190.304 14.6667 190.117 15.22 190.117 15.94V22H186.697V10.84H190.117V12.24C190.464 11.7733 190.917 11.4067 191.477 11.14C192.037 10.86 192.67 10.72 193.377 10.72C194.217 10.72 194.964 10.9 195.617 11.26C196.284 11.62 196.804 12.1333 197.177 12.8C197.564 12.1867 198.09 11.6867 198.757 11.3C199.424 10.9133 200.15 10.72 200.937 10.72ZM218.389 16.24C218.389 16.56 218.369 16.8933 218.329 17.24H210.589C210.642 17.9333 210.862 18.4667 211.249 18.84C211.649 19.2 212.136 19.38 212.709 19.38C213.562 19.38 214.156 19.02 214.489 18.3H218.129C217.942 19.0333 217.602 19.6933 217.109 20.28C216.629 20.8667 216.022 21.3267 215.289 21.66C214.556 21.9933 213.736 22.16 212.829 22.16C211.736 22.16 210.762 21.9267 209.909 21.46C209.056 20.9933 208.389 20.3267 207.909 19.46C207.429 18.5933 207.189 17.58 207.189 16.42C207.189 15.26 207.422 14.2467 207.889 13.38C208.369 12.5133 209.036 11.8467 209.889 11.38C210.742 10.9133 211.722 10.68 212.829 10.68C213.909 10.68 214.869 10.9067 215.709 11.36C216.549 11.8133 217.202 12.46 217.669 13.3C218.149 14.14 218.389 15.12 218.389 16.24ZM214.889 15.34C214.889 14.7533 214.689 14.2867 214.289 13.94C213.889 13.5933 213.389 13.42 212.789 13.42C212.216 13.42 211.729 13.5867 211.329 13.92C210.942 14.2533 210.702 14.7267 210.609 15.34H214.889Z" fill="white"/>
<path d="M63.056 45V36.54H64.052V45H63.056ZM69.0535 45V40.368C69.0535 40.144 69.0415 39.916 69.0175 39.684C69.0015 39.444 68.9815 39.208 68.9575 38.976H69.8935L70.0135 40.296H69.8695C70.0455 39.832 70.3255 39.48 70.7095 39.24C71.1015 38.992 71.5535 38.868 72.0655 38.868C72.7775 38.868 73.3135 39.06 73.6735 39.444C74.0415 39.82 74.2255 40.416 74.2255 41.232V45H73.2535V41.292C73.2535 40.724 73.1375 40.312 72.9055 40.056C72.6815 39.792 72.3295 39.66 71.8495 39.66C71.2895 39.66 70.8455 39.832 70.5175 40.176C70.1895 40.52 70.0255 40.98 70.0255 41.556V45H69.0535ZM81.3647 45.108C80.8367 45.108 80.3727 44.984 79.9727 44.736C79.5727 44.48 79.2607 44.12 79.0367 43.656C78.8207 43.192 78.7127 42.636 78.7127 41.988C78.7127 41.332 78.8207 40.772 79.0367 40.308C79.2607 39.844 79.5727 39.488 79.9727 39.24C80.3727 38.992 80.8367 38.868 81.3647 38.868C81.9087 38.868 82.3767 39.004 82.7687 39.276C83.1687 39.548 83.4367 39.916 83.5727 40.38H83.4287V36.168H84.4007V45H83.4407V43.56H83.5727C83.4447 44.04 83.1807 44.42 82.7807 44.7C82.3807 44.972 81.9087 45.108 81.3647 45.108ZM81.5687 44.316C82.1367 44.316 82.5927 44.12 82.9367 43.728C83.2807 43.328 83.4527 42.748 83.4527 41.988C83.4527 41.22 83.2807 40.64 82.9367 40.248C82.5927 39.848 82.1367 39.648 81.5687 39.648C81.0007 39.648 80.5447 39.848 80.2007 40.248C79.8647 40.64 79.6967 41.22 79.6967 41.988C79.6967 42.748 79.8647 43.328 80.2007 43.728C80.5447 44.12 81.0007 44.316 81.5687 44.316ZM89.28 45V38.976H90.252V45H89.28ZM89.16 37.608V36.516H90.36V37.608H89.16ZM97.4314 45.108C96.8954 45.108 96.4274 44.984 96.0274 44.736C95.6274 44.48 95.3154 44.12 95.0914 43.656C94.8754 43.192 94.7674 42.636 94.7674 41.988C94.7674 41.332 94.8754 40.772 95.0914 40.308C95.3154 39.844 95.6274 39.488 96.0274 39.24C96.4274 38.992 96.8954 38.868 97.4314 38.868C97.9754 38.868 98.4434 39.008 98.8354 39.288C99.2354 39.56 99.4994 39.932 99.6274 40.404H99.4834L99.6154 38.976H100.551C100.527 39.208 100.503 39.444 100.479 39.684C100.463 39.916 100.455 40.144 100.455 40.368V45H99.4834V43.584H99.6154C99.4874 44.056 99.2234 44.428 98.8234 44.7C98.4234 44.972 97.9594 45.108 97.4314 45.108ZM97.6234 44.316C98.1994 44.316 98.6554 44.12 98.9914 43.728C99.3274 43.328 99.4954 42.748 99.4954 41.988C99.4954 41.22 99.3274 40.64 98.9914 40.248C98.6554 39.848 98.1994 39.648 97.6234 39.648C97.0554 39.648 96.5994 39.848 96.2554 40.248C95.9194 40.64 95.7514 41.22 95.7514 41.988C95.7514 42.748 95.9194 43.328 96.2554 43.728C96.5994 44.12 97.0554 44.316 97.6234 44.316ZM111.572 45V36.54H115.028C115.916 36.54 116.604 36.752 117.092 37.176C117.58 37.592 117.824 38.176 117.824 38.928C117.824 39.424 117.712 39.848 117.488 40.2C117.272 40.544 116.964 40.808 116.564 40.992C116.172 41.176 115.712 41.268 115.184 41.268L115.4 41.112H115.64C115.968 41.112 116.26 41.192 116.516 41.352C116.78 41.512 116.988 41.78 117.14 42.156L118.34 45H117.248L116.096 42.204C115.96 41.844 115.756 41.612 115.484 41.508C115.212 41.396 114.872 41.34 114.464 41.34H112.568V45H111.572ZM112.568 40.56H114.884C115.524 40.56 116.008 40.424 116.336 40.152C116.672 39.872 116.84 39.472 116.84 38.952C116.84 38.432 116.672 38.036 116.336 37.764C116.008 37.492 115.524 37.356 114.884 37.356H112.568V40.56ZM125.319 45.108C124.375 45.108 123.631 44.836 123.087 44.292C122.543 43.74 122.271 42.976 122.271 42C122.271 41.368 122.391 40.82 122.631 40.356C122.871 39.884 123.207 39.52 123.639 39.264C124.071 39 124.567 38.868 125.127 38.868C125.679 38.868 126.143 38.984 126.519 39.216C126.895 39.448 127.183 39.78 127.383 40.212C127.583 40.636 127.683 41.14 127.683 41.724V42.084H123.015V41.472H127.047L126.843 41.628C126.843 40.988 126.699 40.488 126.411 40.128C126.123 39.768 125.695 39.588 125.127 39.588C124.527 39.588 124.059 39.8 123.723 40.224C123.387 40.64 123.219 41.204 123.219 41.916V42.024C123.219 42.776 123.403 43.348 123.771 43.74C124.147 44.124 124.671 44.316 125.343 44.316C125.703 44.316 126.039 44.264 126.351 44.16C126.671 44.048 126.975 43.868 127.263 43.62L127.599 44.304C127.335 44.56 126.999 44.76 126.591 44.904C126.191 45.04 125.767 45.108 125.319 45.108ZM134.463 45.108C133.927 45.108 133.459 44.984 133.059 44.736C132.659 44.48 132.347 44.12 132.123 43.656C131.907 43.192 131.799 42.636 131.799 41.988C131.799 41.332 131.907 40.772 132.123 40.308C132.347 39.844 132.659 39.488 133.059 39.24C133.459 38.992 133.927 38.868 134.463 38.868C135.007 38.868 135.475 39.008 135.867 39.288C136.267 39.56 136.531 39.932 136.659 40.404H136.515L136.647 38.976H137.583C137.559 39.208 137.535 39.444 137.511 39.684C137.495 39.916 137.487 40.144 137.487 40.368V45H136.515V43.584H136.647C136.519 44.056 136.255 44.428 135.855 44.7C135.455 44.972 134.991 45.108 134.463 45.108ZM134.655 44.316C135.231 44.316 135.687 44.12 136.023 43.728C136.359 43.328 136.527 42.748 136.527 41.988C136.527 41.22 136.359 40.64 136.023 40.248C135.687 39.848 135.231 39.648 134.655 39.648C134.087 39.648 133.631 39.848 133.287 40.248C132.951 40.64 132.783 41.22 132.783 41.988C132.783 42.748 132.951 43.328 133.287 43.728C133.631 44.12 134.087 44.316 134.655 44.316ZM142.366 45V36.168H143.338V45H142.366ZM154.462 45V36.54H159.862V37.356H155.434V40.296H159.598V41.124H155.434V44.172H159.862V45H154.462ZM166.319 45.108C165.839 45.108 165.391 45.044 164.975 44.916C164.559 44.78 164.215 44.592 163.943 44.352L164.279 43.668C164.575 43.9 164.895 44.072 165.239 44.184C165.591 44.296 165.955 44.352 166.331 44.352C166.811 44.352 167.171 44.268 167.411 44.1C167.659 43.924 167.783 43.684 167.783 43.38C167.783 43.148 167.703 42.964 167.543 42.828C167.391 42.684 167.139 42.572 166.787 42.492L165.671 42.264C165.159 42.152 164.775 41.964 164.519 41.7C164.263 41.428 164.135 41.084 164.135 40.668C164.135 40.316 164.227 40.008 164.411 39.744C164.595 39.472 164.863 39.26 165.215 39.108C165.567 38.948 165.979 38.868 166.451 38.868C166.891 38.868 167.295 38.936 167.663 39.072C168.039 39.2 168.351 39.388 168.599 39.636L168.251 40.308C168.011 40.076 167.735 39.904 167.423 39.792C167.119 39.672 166.803 39.612 166.475 39.612C166.003 39.612 165.647 39.708 165.407 39.9C165.175 40.084 165.059 40.328 165.059 40.632C165.059 40.864 165.131 41.056 165.275 41.208C165.427 41.352 165.659 41.46 165.971 41.532L167.087 41.76C167.631 41.88 168.035 42.068 168.299 42.324C168.571 42.572 168.707 42.908 168.707 43.332C168.707 43.692 168.607 44.008 168.407 44.28C168.207 44.544 167.927 44.748 167.567 44.892C167.215 45.036 166.799 45.108 166.319 45.108ZM175.346 45.108C174.754 45.108 174.302 44.94 173.99 44.604C173.678 44.26 173.522 43.744 173.522 43.056V39.732H172.346V38.976H173.522V37.332L174.494 37.056V38.976H176.222V39.732H174.494V42.948C174.494 43.428 174.574 43.772 174.734 43.98C174.902 44.18 175.15 44.28 175.478 44.28C175.63 44.28 175.766 44.268 175.886 44.244C176.006 44.212 176.114 44.176 176.21 44.136V44.952C176.098 45 175.962 45.036 175.802 45.06C175.65 45.092 175.498 45.108 175.346 45.108ZM182.697 45.108C182.161 45.108 181.693 44.984 181.293 44.736C180.893 44.48 180.581 44.12 180.357 43.656C180.141 43.192 180.033 42.636 180.033 41.988C180.033 41.332 180.141 40.772 180.357 40.308C180.581 39.844 180.893 39.488 181.293 39.24C181.693 38.992 182.161 38.868 182.697 38.868C183.241 38.868 183.709 39.008 184.101 39.288C184.501 39.56 184.765 39.932 184.893 40.404H184.749L184.881 38.976H185.817C185.793 39.208 185.769 39.444 185.745 39.684C185.729 39.916 185.721 40.144 185.721 40.368V45H184.749V43.584H184.881C184.753 44.056 184.489 44.428 184.089 44.7C183.689 44.972 183.225 45.108 182.697 45.108ZM182.889 44.316C183.465 44.316 183.921 44.12 184.257 43.728C184.593 43.328 184.761 42.748 184.761 41.988C184.761 41.22 184.593 40.64 184.257 40.248C183.921 39.848 183.465 39.648 182.889 39.648C182.321 39.648 181.865 39.848 181.521 40.248C181.185 40.64 181.017 41.22 181.017 41.988C181.017 42.748 181.185 43.328 181.521 43.728C181.865 44.12 182.321 44.316 182.889 44.316ZM192.736 45.108C192.144 45.108 191.692 44.94 191.38 44.604C191.068 44.26 190.912 43.744 190.912 43.056V39.732H189.736V38.976H190.912V37.332L191.884 37.056V38.976H193.612V39.732H191.884V42.948C191.884 43.428 191.964 43.772 192.124 43.98C192.292 44.18 192.54 44.28 192.868 44.28C193.02 44.28 193.156 44.268 193.276 44.244C193.396 44.212 193.504 44.176 193.6 44.136V44.952C193.488 45 193.352 45.036 193.192 45.06C193.04 45.092 192.888 45.108 192.736 45.108ZM200.413 45.108C199.469 45.108 198.725 44.836 198.181 44.292C197.637 43.74 197.365 42.976 197.365 42C197.365 41.368 197.485 40.82 197.725 40.356C197.965 39.884 198.301 39.52 198.733 39.264C199.165 39 199.661 38.868 200.221 38.868C200.773 38.868 201.237 38.984 201.613 39.216C201.989 39.448 202.277 39.78 202.477 40.212C202.677 40.636 202.777 41.14 202.777 41.724V42.084H198.109V41.472H202.141L201.937 41.628C201.937 40.988 201.793 40.488 201.505 40.128C201.217 39.768 200.789 39.588 200.221 39.588C199.621 39.588 199.153 39.8 198.817 40.224C198.481 40.64 198.313 41.204 198.313 41.916V42.024C198.313 42.776 198.497 43.348 198.865 43.74C199.241 44.124 199.765 44.316 200.437 44.316C200.797 44.316 201.133 44.264 201.445 44.16C201.765 44.048 202.069 43.868 202.357 43.62L202.693 44.304C202.429 44.56 202.093 44.76 201.685 44.904C201.285 45.04 200.861 45.108 200.413 45.108Z" fill="white"/>
<defs>
<clipPath id="clip0_1514_48738">
<rect width="46" height="48" fill="white" transform="translate(0 3.5)"/>
</clipPath>
</defs>
</svg>
